<?xml version="1.0" encoding="UTF-8" standalone="no"?>
<!DOCTYPE svg PUBLIC "-//W3C//DTD SVG 1.1//EN" "http://www.w3.org/Graphics/SVG/1.1/DTD/svg11.dtd">
<svg xmlns="http://www.w3.org/2000/svg" xmlns:xlink="http://www.w3.org/1999/xlink" version="1.1" width="200px" height="200px" viewBox="0 0 850.394 850.394">
<g enable-background="new">
<g id="Layer-1" data-name="Layer">
<clipPath id="cp0">
<path transform="matrix(1,0,0,-1,0,850.394)" d="M 0 850.394 L 850.394 850.394 L 850.394 0 L 0 0 Z "/>
</clipPath>
<g clip-path="url(#cp0)">
<path transform="matrix(1,0,0,-1,370.5952,440.99549)" d="M 0 0 C -1.624 -.003 -3.132 -.485 -4.393 -1.313 C -6.495 -2.692 -7.911 -5.031 -8.035 -7.711 L -8.058 -7.711 L -8.051 -8.079 L -8.051 -8.092 L -7.969 -39.732 L -7.965 -41.649 C -7.954 -46.086 -4.338 -49.712 .093 -49.698 L .094 -49.698 C .204 -49.698 .307 -49.67 .416 -49.665 C 3.76 -49.529 6.551 -47.352 7.632 -44.35 C 7.942 -43.491 8.138 -42.578 8.137 -41.615 L 8.056 -7.683 C 7.842 -3.39 4.325 .008 0 0 " fill="#c2151b"/>
<path transform="matrix(1,0,0,-1,476.8043,441.43589)" d="M 0 0 C -1.624 -.003 -3.132 -.485 -4.393 -1.313 C -6.495 -2.692 -7.911 -5.031 -8.035 -7.711 L -8.058 -7.711 L -8.051 -8.079 L -8.051 -8.092 L -7.969 -39.732 L -7.965 -41.65 C -7.954 -46.086 -4.338 -49.712 .093 -49.698 L .094 -49.698 C .204 -49.698 .307 -49.67 .416 -49.665 C 3.76 -49.529 6.551 -47.352 7.633 -44.35 C 7.942 -43.491 8.139 -42.578 8.137 -41.615 L 8.056 -7.683 C 7.842 -3.39 4.325 .008 0 0 " fill="#c2151b"/>
<path transform="matrix(1,0,0,-1,590.7014,481.87138)" d="M 0 0 L 0 .011 L -.034 16.605 L -.032 17.196 C -.031 17.417 -.037 17.617 -.039 17.837 C -.687 30.689 -11.243 40.905 -24.173 40.913 L -24.216 40.913 C -24.22 40.913 -24.223 40.914 -24.227 40.914 L -24.308 40.914 C -25.311 40.909 -26.292 40.822 -27.263 40.698 C -27.305 40.692 -27.346 40.684 -27.388 40.678 C -28.341 40.551 -29.274 40.365 -30.189 40.13 L -30.196 40.145 L -30.25 40.114 C -34.652 38.969 -38.561 36.62 -41.616 33.425 C -41.63 33.411 -41.643 33.397 -41.656 33.383 C -43.345 31.609 -44.768 29.585 -45.863 27.363 C -45.9 27.289 -45.94 27.218 -45.976 27.144 C -46.179 26.721 -46.36 26.287 -46.539 25.85 C -46.632 25.626 -46.726 25.402 -46.812 25.174 C -46.958 24.784 -47.091 24.391 -47.217 23.992 C -47.313 23.693 -47.4 23.392 -47.484 23.088 C -47.584 22.726 -47.68 22.364 -47.763 21.995 C -47.85 21.613 -47.918 21.225 -47.987 20.837 C -48.041 20.525 -48.103 20.217 -48.146 19.901 C -48.242 19.192 -48.313 18.475 -48.347 17.748 C -48.347 17.744 -48.348 17.74 -48.348 17.736 C -48.364 17.515 -48.364 17.319 -48.364 17.088 L -48.364 17.087 L -48.367 16.576 L -48.363 16.524 L -48.363 16.502 L -48.349 -.089 L -48.35 -.098 L -48.351 -.469 L -48.33 -.47 C -48.304 -1.004 -48.227 -1.525 -48.102 -2.027 C -47.479 -4.539 -45.679 -6.588 -43.321 -7.552 C -42.378 -7.937 -41.347 -8.149 -40.265 -8.148 C -35.955 -8.134 -32.437 -4.714 -32.266 -.44 L -32.228 -.44 L -32.226 -.44 L -32.263 17.122 C -32.263 17.152 -32.265 17.18 -32.265 17.204 C -31.993 21.428 -28.524 24.758 -24.262 24.795 L -24.247 24.795 L -24.175 24.795 C -19.899 24.777 -16.428 21.458 -16.124 17.238 L -16.125 17.16 L -16.07 -.407 C -15.921 -3.609 -13.892 -6.328 -11.067 -7.481 C -10.126 -7.866 -9.095 -8.077 -8.017 -8.073 C -4.237 -8.067 -1.068 -5.442 -.215 -1.926 C -.093 -1.423 -.018 -.903 .004 -.369 Z " fill="#c2151b"/>
<path transform="matrix(1,0,0,-1,355.9151,465.89649)" d="M 0 0 L 0 .001 C 0 .017 -.003 .033 -.004 .049 C -.01 .247 -.026 .432 -.049 .637 C -.351 7.057 -3.144 12.824 -7.48 16.985 C -11.815 21.146 -17.693 23.702 -24.164 23.7 L -24.165 23.7 L -24.214 23.7 L -24.27 23.7 L -24.298 23.701 C -25.271 23.697 -26.224 23.617 -27.166 23.501 C -27.283 23.485 -27.398 23.465 -27.515 23.448 C -28.422 23.322 -29.311 23.145 -30.183 22.922 L -30.196 22.931 L -30.231 22.91 C -33.759 21.997 -36.962 20.304 -39.671 18.028 C -43.889 21.644 -49.36 23.83 -55.341 23.829 L -55.342 23.829 L -55.391 23.829 L -55.447 23.829 L -55.475 23.829 C -56.448 23.825 -57.401 23.745 -58.343 23.629 C -58.46 23.614 -58.575 23.594 -58.692 23.576 C -59.599 23.451 -60.488 23.274 -61.361 23.05 L -61.374 23.06 L -61.408 23.038 C -65.193 22.06 -68.611 20.191 -71.438 17.658 C -71.443 17.653 -71.449 17.649 -71.454 17.644 C -71.9 17.244 -72.33 16.828 -72.745 16.396 C -72.797 16.342 -72.848 16.287 -72.9 16.232 C -73.291 15.817 -73.672 15.393 -74.033 14.951 C -74.083 14.891 -74.129 14.828 -74.178 14.767 C -75.177 13.521 -76.052 12.176 -76.794 10.746 C -76.927 10.49 -77.066 10.239 -77.19 9.979 C -77.343 9.657 -77.478 9.327 -77.617 8.998 C -77.758 8.663 -77.897 8.328 -78.023 7.986 C -78.137 7.677 -78.242 7.365 -78.344 7.051 C -78.469 6.665 -78.583 6.276 -78.688 5.882 C -78.767 5.588 -78.846 5.294 -78.914 4.996 C -79.017 4.546 -79.1 4.089 -79.177 3.63 C -79.22 3.373 -79.272 3.119 -79.307 2.859 C -79.4 2.176 -79.466 1.485 -79.501 .784 C -79.503 .744 -79.51 .706 -79.512 .666 C -79.534 .443 -79.535 .244 -79.535 .019 L -79.533 -.467 L -79.534 -.579 L -79.5 -17.161 L -79.501 -17.529 C -79.449 -18.602 -79.189 -19.62 -78.761 -20.544 C -78.547 -21.006 -78.291 -21.444 -77.997 -21.854 C -76.531 -23.903 -74.137 -25.237 -71.431 -25.229 C -70.355 -25.226 -69.327 -25.01 -68.389 -24.62 C -65.573 -23.451 -63.557 -20.717 -63.418 -17.494 L -63.422 .056 C -63.422 .09 -63.452 .107 -63.452 .137 C -63.161 4.354 -59.695 7.686 -55.436 7.738 L -55.412 7.738 L -55.354 7.738 L -55.337 7.738 C -52.404 7.715 -49.863 6.119 -48.45 3.768 C -48.313 3.539 -48.191 3.302 -48.074 3.061 C -48.094 2.951 -48.115 2.842 -48.13 2.731 C -48.223 2.047 -48.289 1.356 -48.324 .656 C -48.326 .616 -48.333 .577 -48.335 .537 C -48.357 .314 -48.358 .115 -48.358 -.11 L -48.356 -.596 L -48.357 -.708 L -48.322 -17.29 L -48.324 -17.658 C -48.272 -18.73 -48.012 -19.748 -47.584 -20.672 C -47.37 -21.134 -47.114 -21.573 -46.82 -21.982 C -45.354 -24.031 -42.96 -25.365 -40.254 -25.357 C -39.598 -25.356 -38.963 -25.266 -38.352 -25.115 C -34.421 -24.702 -31.315 -21.442 -31.139 -17.43 L -31.138 -17.069 L -31.138 -17.063 L -31.18 -.467 L -31.177 .129 L -31.177 .13 C -31.177 .146 -31.18 .162 -31.181 .178 C -31.187 .375 -31.203 .56 -31.227 .766 C -31.263 1.543 -31.338 2.31 -31.445 3.066 C -30.129 5.731 -27.413 7.571 -24.259 7.61 L -24.235 7.609 L -24.177 7.609 L -24.16 7.609 C -21.227 7.587 -18.686 5.991 -17.273 3.639 C -16.631 2.57 -16.2 1.36 -16.11 .045 L -16.111 -.039 L -16.076 -17.597 L -16.048 -17.597 C -15.883 -21.339 -13.152 -24.43 -9.581 -25.137 C -9.071 -25.238 -8.544 -25.29 -8.005 -25.289 C -3.689 -25.281 -.15 -21.85 .038 -17.558 L .039 -17.198 L .039 -17.192 L -.002 -.596 Z " fill="#c2151b"/>
<path transform="matrix(1,0,0,-1,517.7048,473.35139)" d="M 0 0 C -.986 -.421 -2.071 -.656 -3.208 -.661 L -3.3 -.661 C -7.837 -.672 -11.545 3.022 -11.551 7.591 C -11.567 11.581 -8.742 14.917 -4.999 15.696 C -4.721 15.754 -4.426 15.757 -4.138 15.786 C -3.87 15.813 -3.611 15.868 -3.336 15.868 L -3.241 15.868 C -.683 15.874 1.581 14.685 3.101 12.853 C 4.283 11.427 5.026 9.623 5.033 7.625 C 5.038 4.204 2.959 1.264 0 0 M -3.272 32.213 L -3.315 32.214 L -3.351 32.214 L -3.352 32.214 L -3.353 32.214 L -3.365 32.213 C -16.935 32.183 -27.897 21.141 -27.866 7.558 C -27.862 5.307 -27.531 3.138 -26.963 1.068 C -24.102 -9.369 -14.592 -17.038 -3.26 -17.012 L -3.167 -17.012 L -3.166 -17.012 C -.625 -17.006 1.825 -16.613 4.129 -15.888 C 14.114 -12.749 21.352 -3.39 21.329 7.661 C 21.3 21.246 10.284 32.244 -3.272 32.213 " fill="#c2151b"/>
<path transform="matrix(1,0,0,-1,406.5588,458.926)" d="M 0 0 L -7.59 .031 C -8.787 .036 -9.753 1.011 -9.749 2.208 C -9.744 3.405 -8.769 4.371 -7.572 4.366 L 4.18 4.318 C 4.323 4.305 4.459 4.269 4.605 4.265 L 4.875 4.264 C 8.601 4.323 11.614 7.341 11.629 11.084 C 11.645 14.794 8.707 17.81 5.028 17.95 L 4.564 17.952 C 4.328 17.945 4.106 17.894 3.877 17.864 L -7.025 17.909 C -14.9 17.941 -21.96 12.385 -23.113 4.595 C -24.549 -5.11 -17.087 -13.47 -7.645 -13.509 L .438 -13.543 C 1.631 -13.548 2.593 -14.518 2.588 -15.711 C 2.583 -16.903 1.613 -17.866 -1.038 -17.855 L -13.076 -17.805 C -13.091 -17.813 -13.096 -17.822 -13.111 -17.83 C -13.319 -17.802 -13.52 -17.753 -13.734 -17.744 L -14.198 -17.743 C -17.878 -17.853 -20.841 -20.843 -20.856 -24.553 C -20.871 -28.297 -17.883 -31.34 -14.158 -31.429 L -13.888 -31.43 C -13.618 -31.426 -13.362 -31.374 -13.101 -31.34 C -13.099 -31.343 -13.097 -31.345 -13.095 -31.348 C -12.827 -31.386 -12.565 -31.44 -12.289 -31.447 L -12.019 -31.448 C -11.742 -31.444 -11.48 -31.391 -11.212 -31.355 L .576 -31.404 C 9.974 -31.313 17.373 -22.98 15.948 -13.318 C 14.807 -5.577 7.824 -.032 0 0 " fill="#c2151b"/>
<path transform="matrix(1,0,0,-1,447.1167,459.0933)" d="M 0 0 L -7.59 .031 C -8.787 .036 -9.754 1.011 -9.749 2.208 C -9.744 3.405 -8.769 4.371 -7.572 4.366 L 4.18 4.318 C 4.323 4.305 4.459 4.269 4.604 4.265 L 4.875 4.264 C 8.601 4.323 11.614 7.341 11.629 11.084 C 11.645 14.794 8.707 17.81 5.028 17.95 L 4.564 17.952 C 4.328 17.945 4.106 17.894 3.877 17.864 L -7.025 17.909 C -14.9 17.941 -21.96 12.385 -23.113 4.595 C -24.549 -5.11 -17.087 -13.47 -7.645 -13.509 L .438 -13.543 C 1.63 -13.548 2.593 -14.518 2.588 -15.711 C 2.583 -16.903 1.613 -17.866 -1.038 -17.855 L -13.076 -17.805 C -13.091 -17.813 -13.096 -17.822 -13.111 -17.83 C -13.319 -17.802 -13.52 -17.753 -13.734 -17.744 L -14.198 -17.742 C -17.878 -17.853 -20.841 -20.843 -20.856 -24.553 C -20.871 -28.297 -17.883 -31.34 -14.158 -31.429 L -13.888 -31.43 C -13.618 -31.426 -13.362 -31.374 -13.101 -31.34 C -13.099 -31.343 -13.097 -31.345 -13.095 -31.348 C -12.827 -31.386 -12.565 -31.44 -12.289 -31.447 L -12.019 -31.448 C -11.742 -31.444 -11.48 -31.391 -11.212 -31.355 L .576 -31.404 C 9.974 -31.313 17.373 -22.98 15.948 -13.318 C 14.807 -5.577 7.824 -.032 0 0 " fill="#c2151b"/>
<path transform="matrix(1,0,0,-1,224.2359,447.7793)" d="M 0 0 C -11.377 -17 -28.72 -28.57 -48.696 -32.451 C -53.842 -33.479 -59.023 -34.003 -64.224 -33.952 C -100.315 -33.615 -131.533 -7.545 -138.465 27.973 C -146.573 69.437 -119.493 109.806 -78.141 117.908 C -73.021 118.958 -67.793 119.437 -62.647 119.385 C -26.606 119.059 4.691 93.028 11.576 57.482 C 15.499 37.378 11.419 16.986 0 0 M 26.89 60.508 C 18.478 103.269 -19.03 134.584 -62.499 134.973 C -68.709 135.034 -74.999 134.478 -81.112 133.277 C -130.933 123.43 -163.506 74.866 -153.749 24.969 C -145.37 -17.817 -107.795 -49.126 -64.368 -49.524 C -58.149 -49.578 -51.843 -48.984 -45.725 -47.785 C -21.587 -43.062 -.763 -29.193 12.935 -8.746 C 26.654 11.74 31.598 36.299 26.89 60.508 " fill="#c2151b"/>
<path transform="matrix(1,0,0,-1,171.9822,455.91978)" d="M 0 0 C -28.499 -4.987 -53.035 30.819 -57.886 55.615 C -62.751 80.468 -42.936 85.431 -18.184 90.341 C 6.612 95.168 28.415 96.779 32.721 71.856 C 39.041 35.571 18.518 3.268 0 0 M -23.614 108.563 C -57.836 101.488 -84.021 89.047 -73.749 46.708 C -64.079 6.835 -31.03 -20.466 2.322 -13.953 C 35.666 -7.379 58.13 37.426 46.31 79.501 C 37.08 112.265 17.003 116.918 -23.614 108.563 " fill="#c2151b"/>
<path transform="matrix(1,0,0,-1,165.3358,428.5113)" d="M 0 0 C -9.546 -1.892 -23.832 16.969 -25.688 26.548 C -27.554 36.097 -15.322 31.721 -5.809 33.628 C 3.767 35.478 14.546 44.41 16.418 34.835 C 18.342 25.221 9.575 1.856 0 0 M -8.349 46.585 C -24.932 43.296 -41.651 47.755 -38.407 31.175 C -35.159 14.525 -16.927 -17.154 3.177 -13.683 C 20.544 -10.636 28.589 25.058 25.311 41.72 C 22.122 58.305 8.239 49.816 -8.349 46.585 " fill="#c2151b"/>
<path transform="matrix(1,0,0,-1,168.9728,401.1843)" d="M 0 0 C -4.472 .657 -6.725 -3.546 -6.725 -3.546 C -6.725 -3.546 -11.441 -.139 -15.331 -3.445 C -22.693 -10.584 -3.683 -17.392 -3.683 -17.392 C -3.683 -17.392 -1.136 -14.906 .986 -11.721 L 1.83 -10.501 C 2.045 -10.109 2.242 -9.674 2.547 -9.277 L 3.197 -7.966 C 4.64 -4.493 4.576 -1.193 0 0 " fill="#c2151b"/>
<path transform="matrix(1,0,0,-1,78.7513,483.8535)" d="M 0 0 L -.088 -.078 L 1.013 -1.361 " fill="#231f20"/>
<path transform="matrix(1,0,0,-1,225.5542,486.50828)" d="M 0 0 L -.075 -.047 L 1.023 -1.348 " fill="#231f20"/>
<path transform="matrix(1,0,0,-1,649.6281,415.21119)" d="M 0 0 L 0 .061 C -1.342 -.385 -2.811 -.672 -4.341 -.674 C -11.931 -.728 -18.135 5.41 -18.211 13.027 C -18.211 13.027 -18.25 13.052 -18.25 13.081 C -18.25 13.081 -18.211 13.133 -18.211 13.177 C -18.211 13.199 -18.25 13.227 -18.25 13.227 C -18.25 13.276 -18.211 13.309 -18.211 13.336 C -18.211 13.401 -18.25 13.427 -18.25 13.49 C -18.25 13.541 -18.211 13.585 -18.211 13.653 C -18.211 13.676 -18.25 13.676 -18.25 13.718 C -18.25 13.718 -18.211 13.763 -18.211 13.798 C -18.211 13.798 -18.25 13.86 -18.25 13.881 C -18.25 13.902 -18.211 13.94 -18.211 13.94 C -18.237 21.576 -12.107 27.761 -4.507 27.803 C -2.985 27.823 -1.515 27.583 -.171 27.133 L -.171 27.179 C 4.225 26.272 8.959 27.525 12.361 30.948 C 17.663 36.358 17.607 45.006 12.246 50.327 C 10.67 51.888 8.804 52.962 6.826 53.618 C 6.391 53.764 5.941 53.867 5.526 53.936 C 2.262 54.77 -1.155 55.192 -4.678 55.174 C -27.385 55.023 -45.662 36.446 -45.529 13.718 L -45.529 13.535 C -45.522 13.464 -45.522 13.38 -45.522 13.311 L -45.522 12.918 C -45.377 -9.834 -26.879 -28.168 -4.162 -28.038 C -.647 -28.005 2.788 -27.541 6.029 -26.698 C 6.445 -26.604 6.891 -26.472 7.315 -26.317 C 9.289 -25.669 11.149 -24.546 12.702 -22.973 C 17.99 -17.575 17.936 -8.918 12.589 -3.599 C 9.137 -.226 4.381 .974 0 0 " fill="#c2151b"/>
<path transform="matrix(1,0,0,-1,310.4609,388.455)" d="M 0 0 L 0 -.009 C -.472 -6.518 -5.855 -11.67 -12.486 -11.724 L -12.503 -11.724 L -12.642 -11.724 L -12.643 -11.724 C -18.721 -11.758 -23.833 -7.475 -25.046 -1.745 C -25.219 -.927 -25.313 -.079 -25.319 .791 C -25.356 7.756 -19.748 13.438 -12.805 13.497 C -12.803 13.497 -12.801 13.496 -12.799 13.496 C -12.776 13.496 -12.748 13.497 -12.72 13.497 L -12.69 13.497 C -12.686 13.497 -12.689 13.498 -12.686 13.498 L -12.673 13.497 C -12.67 13.497 -12.667 13.498 -12.664 13.498 C -12.656 13.498 -12.649 13.499 -12.642 13.499 C -12.268 13.502 -11.914 13.43 -11.549 13.401 C -5.328 12.896 -.336 7.92 .044 1.647 C .001 1.422 -.015 1.166 -.01 .931 Z M 24.889 1.089 L 24.889 1.111 C 24.824 11.478 20.583 20.846 13.768 27.604 C 6.953 34.362 -2.436 38.513 -12.798 38.447 L -12.918 38.447 C -12.928 38.447 -12.937 38.446 -12.947 38.446 L -12.961 38.446 C -12.966 38.446 -12.971 38.444 -12.976 38.444 C -26.336 38.341 -37.963 31.24 -44.518 20.661 C -48.122 14.844 -50.216 7.992 -50.171 .64 C -50.061 -17.5 -37.136 -32.548 -20.042 -35.941 C -17.6 -36.426 -15.073 -36.673 -12.486 -36.658 L -12.485 -36.658 L -12.357 -36.658 L -12.327 -36.658 C -6.511 -36.615 -1.022 -35.263 3.904 -32.877 C 4.471 -33.437 5.095 -33.94 5.765 -34.381 C 7.748 -35.691 10.139 -36.447 12.68 -36.438 L 12.681 -36.438 C 12.918 -36.437 13.139 -36.381 13.372 -36.366 C 19.73 -35.969 24.795 -30.85 25.044 -24.45 L 25.044 -24.449 L 25.044 -23.868 L 25.044 -23.866 L 24.889 1.081 Z " fill="#c2151b"/>
<path transform="matrix(1,0,0,-1,689.8406,349.2378)" d="M 0 0 C -2.513 -.015 -4.844 -.771 -6.79 -2.06 C -10.034 -4.208 -12.211 -7.836 -12.386 -11.985 L -12.421 -11.985 L -12.408 -12.555 L -12.408 -12.575 L -12.079 -61.542 L -12.06 -64.509 C -12.015 -71.376 -6.397 -76.965 .462 -76.915 L .463 -76.915 C .633 -76.914 .792 -76.869 .96 -76.862 C 6.136 -76.629 10.44 -73.242 12.096 -68.589 C 12.569 -67.257 12.867 -65.843 12.86 -64.353 L 12.516 -11.839 C 12.158 -5.196 6.693 .04 0 0 " fill="#c2151b"/>
<path transform="matrix(1,0,0,-1,417.1878,386.8429)" d="M 0 0 L -.159 25.68 L -.159 26.595 C -.159 26.938 -.169 27.247 -.174 27.588 C -1.259 47.473 -17.661 63.217 -37.673 63.146 L -37.739 63.146 C -37.745 63.146 -37.75 63.148 -37.756 63.148 L -37.882 63.148 C -39.433 63.134 -40.952 62.993 -42.453 62.794 C -42.518 62.785 -42.582 62.773 -42.647 62.763 C -44.121 62.56 -45.563 62.266 -46.978 61.896 L -46.989 61.92 L -47.072 61.872 C -53.877 60.072 -59.912 56.41 -64.621 51.447 C -64.641 51.426 -64.661 51.404 -64.681 51.382 C -67.284 48.625 -69.474 45.484 -71.155 42.037 C -71.21 41.923 -71.273 41.813 -71.328 41.698 C -71.64 41.042 -71.917 40.369 -72.191 39.692 C -72.333 39.344 -72.477 38.997 -72.608 38.643 C -72.832 38.04 -73.036 37.43 -73.229 36.812 C -73.374 36.349 -73.508 35.882 -73.636 35.411 C -73.788 34.85 -73.935 34.289 -74.061 33.718 C -74.193 33.126 -74.296 32.525 -74.399 31.924 C -74.482 31.441 -74.576 30.964 -74.64 30.475 C -74.784 29.377 -74.889 28.267 -74.937 27.141 C -74.937 27.135 -74.938 27.129 -74.938 27.122 C -74.961 26.781 -74.961 26.477 -74.96 26.119 L -74.96 26.118 L -74.96 25.327 L -74.954 25.247 L -74.954 25.213 L -74.827 -.464 L -74.827 -.477 L -74.827 -1.051 L -74.827 -1.053 L -74.795 -1.053 C -74.752 -1.88 -74.628 -2.685 -74.432 -3.462 C -73.452 -7.345 -70.652 -10.506 -66.998 -11.981 C -65.536 -12.572 -63.938 -12.894 -62.264 -12.884 C -55.593 -12.836 -50.171 -7.52 -49.934 -.905 L -49.875 -.905 L -49.872 -.905 L -50.042 26.275 C -50.042 26.322 -50.045 26.365 -50.045 26.402 C -49.65 32.941 -44.303 38.116 -37.708 38.201 L -37.684 38.201 L -37.572 38.201 C -30.955 38.201 -25.561 33.087 -25.065 26.557 L -25.065 26.437 L -24.867 -.75 C -24.617 -5.704 -21.46 -9.899 -17.08 -11.667 C -15.621 -12.256 -14.025 -12.576 -12.355 -12.564 C -6.506 -12.529 -1.618 -8.447 -.32 -2.999 C -.135 -2.221 -.022 -1.415 .009 -.589 L 0 -.018 Z " fill="#c2151b"/>
<path transform="matrix(1,0,0,-1,592.3615,363.38819)" d="M 0 0 L 0 .001 C 0 .027 -.005 .051 -.006 .076 C -.017 .382 -.043 .668 -.081 .985 C -.588 10.92 -4.948 19.827 -11.685 26.239 C -18.421 32.651 -27.534 36.569 -37.549 36.525 L -37.55 36.525 L -37.626 36.525 L -37.712 36.525 L -37.756 36.525 C -39.262 36.513 -40.736 36.383 -42.194 36.197 C -42.375 36.173 -42.552 36.14 -42.732 36.113 C -44.136 35.913 -45.511 35.634 -46.86 35.282 L -46.88 35.296 L -46.933 35.263 C -52.785 33.724 -58.062 30.811 -62.421 26.873 C -62.429 26.865 -62.438 26.858 -62.446 26.85 C -63.134 26.228 -63.796 25.582 -64.436 24.911 C -64.516 24.827 -64.595 24.741 -64.674 24.656 C -65.277 24.011 -65.864 23.353 -66.421 22.667 C -66.497 22.573 -66.567 22.475 -66.643 22.38 C -68.182 20.446 -69.528 18.358 -70.667 16.14 C -70.871 15.744 -71.084 15.355 -71.275 14.951 C -71.509 14.452 -71.716 13.94 -71.929 13.43 C -72.145 12.911 -72.358 12.391 -72.552 11.861 C -72.726 11.382 -72.886 10.899 -73.041 10.412 C -73.232 9.814 -73.406 9.211 -73.567 8.601 C -73.687 8.145 -73.807 7.69 -73.911 7.228 C -74.067 6.531 -74.192 5.824 -74.309 5.113 C -74.374 4.715 -74.453 4.322 -74.506 3.919 C -74.645 2.861 -74.743 1.79 -74.792 .706 C -74.795 .644 -74.806 .585 -74.808 .523 C -74.842 .177 -74.842 -.13 -74.841 -.479 L -74.835 -1.231 L -74.835 -1.404 L -74.676 -27.067 L -74.676 -27.636 C -74.588 -29.296 -74.179 -30.87 -73.511 -32.297 C -73.176 -33.011 -72.777 -33.688 -72.321 -34.32 C -70.038 -37.482 -66.324 -39.53 -62.137 -39.501 C -60.471 -39.491 -58.883 -39.15 -57.432 -38.54 C -53.082 -36.712 -49.979 -32.468 -49.785 -27.48 L -49.903 -.318 C -49.903 -.265 -49.95 -.24 -49.95 -.193 C -49.526 6.335 -44.184 11.514 -37.593 11.622 L -37.556 11.622 L -37.466 11.622 L -37.439 11.622 C -32.901 11.606 -28.958 9.152 -26.756 5.522 C -25.755 3.871 -25.08 2.002 -24.933 -.034 L -24.933 -.164 L -24.767 -27.336 L -24.725 -27.336 C -24.446 -33.127 -20.199 -37.893 -14.668 -38.964 C -13.878 -39.117 -13.062 -39.195 -12.227 -39.189 C -5.548 -39.15 -.092 -33.816 .171 -27.174 L .171 -26.616 L .171 -26.607 L 0 -.922 Z " fill="#c2151b"/>
<path transform="matrix(1,0,0,-1,503.6479,387.13288)" d="M 0 0 L -.156 25.663 L -.156 25.69 L -.156 25.704 L -.161 26.267 C -.513 32.879 -6.033 38.128 -12.696 38.09 C -19.382 38.046 -24.786 32.733 -25.069 26.114 L -24.939 -1.066 C -24.939 -1.119 -24.895 -1.155 -24.895 -1.192 C -25.335 -7.71 -30.67 -12.9 -37.299 -13.008 L -37.373 -13.008 L -37.42 -13.008 C -38.868 -13.003 -40.241 -12.715 -41.534 -12.26 C -44.67 -11.156 -47.253 -8.883 -48.688 -5.917 C -49.364 -4.52 -49.79 -2.979 -49.907 -1.35 L -49.907 -1.23 L -50.116 25.953 L -50.129 25.953 C -50.232 28.06 -50.906 29.998 -51.929 31.701 C -52.111 32.004 -52.261 32.33 -52.467 32.615 C -52.699 32.936 -52.986 33.21 -53.247 33.506 C -53.498 33.792 -53.722 34.103 -53.998 34.364 C -54.484 34.825 -55.022 35.227 -55.576 35.605 C -55.663 35.665 -55.736 35.744 -55.826 35.801 C -56.07 35.959 -56.347 36.064 -56.603 36.205 C -58.397 37.193 -60.432 37.793 -62.616 37.78 C -69.329 37.733 -74.713 32.417 -74.997 25.796 L -74.997 25.226 L -74.997 25.198 L -74.997 25.197 L -74.843 -.469 L -74.843 -.63 L -74.841 -1.385 C -74.841 -1.719 -74.826 -2.047 -74.798 -2.379 C -73.761 -22.229 -57.334 -37.992 -37.299 -37.925 L -37.217 -37.925 L -37.131 -37.925 L -37.089 -37.925 C -17.049 -37.742 -.86 -21.774 -.042 -1.905 C 0 -1.595 .009 -1.256 .009 -.919 L 0 -.174 Z " fill="#c2151b"/>
<path transform="matrix(1,0,0,-1,756.0712,385.74549)" d="M 0 0 C -1.524 -.658 -3.2 -1.029 -4.961 -1.043 L -5.102 -1.043 C -12.124 -1.09 -17.887 4.604 -17.925 11.675 C -17.975 17.849 -13.625 23.031 -7.837 24.26 C -7.407 24.351 -6.95 24.359 -6.505 24.405 C -6.091 24.448 -5.69 24.535 -5.265 24.537 L -5.117 24.537 C -1.158 24.563 2.354 22.737 4.718 19.911 C 6.556 17.713 7.717 14.925 7.741 11.833 C 7.771 6.539 4.572 1.975 0 0 M -5.269 49.834 L -5.336 49.834 L -5.392 49.834 L -5.393 49.834 C -5.394 49.834 -5.395 49.834 -5.395 49.834 L -5.413 49.833 C -26.415 49.699 -43.31 32.54 -43.175 11.519 C -43.154 8.035 -42.628 4.681 -41.737 1.481 C -37.241 -14.654 -22.474 -26.462 -4.937 -26.349 L -4.936 -26.349 L -4.793 -26.349 L -4.791 -26.349 C -.859 -26.323 2.931 -25.699 6.492 -24.563 C 21.925 -19.641 33.067 -5.11 32.961 11.993 C 32.829 33.017 15.711 49.967 -5.269 49.834 " fill="#c2151b"/>
</g>
</g>
</g>
</svg>
