<svg id="Groupe_79478" data-name="Groupe 79478" xmlns="http://www.w3.org/2000/svg" xmlns:xlink="http://www.w3.org/1999/xlink" width="484.085" height="536.914" viewBox="0 0 484.085 536.914">
  <defs>
    <clipPath id="clip-path">
      <rect id="Rectangle_148772" data-name="Rectangle 148772" width="484.085" height="536.914" fill="none"/>
    </clipPath>
  </defs>
  <g id="Groupe_79477" data-name="Groupe 79477" clip-path="url(#clip-path)">
    <path id="Tracé_84631" data-name="Tracé 84631" d="M393.577,481.213q.25,5.17.5,10.342c.789,2.517,2.648,2.664,4.671,2.446,8.194-1.4,14.689-1.671,15.126,2.114.313,3.322-1.561,5.65-3.614,7.9l-16.407,16.407c-.277.276-.331.328-.339.707l-.216,12.75c-.01,1.9.921,2.424,2.113,2.558h35.258c2.121.1,3.2-.878,3.559-2.614V522.975c0-2.21-.939-3.02-2.447-3.059h-8.47c-2.653-.015-3.3-3.015-1.5-3.944,7.579-4.827,13.151-11.244,12.481-22.613-.465-16.889-17.431-20.879-38.272-15.013-1.388.428-2.4,1.06-2.448,2.867" fill="#007d37" fill-rule="evenodd"/>
    <path id="Tracé_84632" data-name="Tracé 84632" d="M157.285,1.207A24.9,24.9,0,0,0,139.03,17.262c-2.462,6.9-1.493,24.691-1.493,33.175l0,93.634c.065,10.213,2.332,6.872-36.138,6.872H32.35c-13.253,0-18.711.78-25.733,8.366C-.941,167.473.164,174.536.164,187.372v69.052c0,11.453-1.491,21.236,4.524,29.4,5.08,6.9,11.328,10.718,23.562,10.69l94.285.051c8.375-.018-1.425-3.055-3.875-32.136-3.036-36.029,8.369-70.272,33.45-94.234,17.465-16.686,34.32-27.229,53.437-41.372,1.862-1.377,2.932-2.366,4.545-3.64,24.1-19.047,38.661-41.052,35.167-75.893-1.5-14.912-5.519-26.217-11.928-38.911-1.519-3.01-4.581-9.4-7.836-9.924-5.695-.911-63.227-.354-68.21.75" fill="#007d37" fill-rule="evenodd"/>
    <path id="Tracé_84633" data-name="Tracé 84633" d="M138.269,318.8a.838.838,0,0,0-.221.474c-.029.268-.165.351-.2.484-.917,3.471-.311,173.63-.311,175.422,0,5.909-.553,16.053.511,21.284,4.925,24.211,30.164,20.122,46.451,20.122h66.127c7.724,0,13.508.394,18.179-3.917,11.665-10.765-.613-59.349-5.841-73.234A157.252,157.252,0,0,0,248.4,430.119C242,420.043,235.5,413.2,228.17,405.867c-5.8-5.8-13.288-13.279-19.611-18.438l-20.817-18.365c-15.142-13.622-25.01-21.013-39.327-37.946-1.945-2.3-3.155-3.8-5-6.1-1.559-1.941-3.28-5.135-5.147-6.214" fill="#007d37" fill-rule="evenodd"/>
    <path id="Tracé_84634" data-name="Tracé 84634" d="M251.356,34.016c1.291,1.2.571.473,2.024,1.315,2.412,1.4.8-.839,2.034,1.76.286,1.65-1.742,1.576-1.126,4.969.534,2.935,2.3,2.331,4.311,3.736.809,4.577-3.1,2.748-1.945,7.952,1,4.512,5.2,2.067,4.491,5.9-.457,2.459-4.232,1.773-3.577,7.137.484,3.966,7.434,4.954,2.881,8.129a16.923,16.923,0,0,0-1.852,1.039,5.215,5.215,0,0,0-2.217,4.34c-.234,6.53,4.758,3.384,3.9,8.768-3.4,1.879-6.465.888-7.579,6.181-1.123,5.334,2.656,6.49,4.213,9.034-1.313,4.239-.015,2.918-3.706,3.785a7.16,7.16,0,0,0-4.589,3.017c-3.325,4.732-.214,8.446,2.131,10.754l-1.975,5.142c-4.456-.417-7.245,1.121-8.662,4.248-1.852,4.091.94,7.23,2.245,9.336l-2.389,4.709c-10.107-.57-12.85,7.758-7.45,12.629-2.243,7.535-14.9,22.025-18.909,32.327-5.178.384-8.131,1.54-9.678,5.482-2.171,5.534,1.252,7.629,3.351,10.394-1.839,9.29-3.181,13.841-3.181,24.358-3.488,2.394-6.815,4.366-6.3,9.579.555,5.655,4.677,6.08,8.843,7.612l1.613,4.656c-1.639,2.6-4.516,4.406-2.059,9.331,1.516,3.037,4.108,3.429,8.511,3.789,4.647,7.811,3.088,2.7,2.259,8.746a5.839,5.839,0,0,0,5.616,6.641c5.627.171,1.916-1.791,7.779,4.07,6.388,6.385,13.206,12.815,19.091,19.544L262.3,317.837c-2.4-6.252-6.967-13.071-10.185-19.57a129.86,129.86,0,0,1-8.48-21.388c-17.742-60.507,19.546-114.693,85.121-102.7a21.141,21.141,0,0,1,2.4.509c.192.064.748.278.927.36a5.259,5.259,0,0,1,1.351.8c-17.671,2.953-31.547,18.457-36.414,34.508-4.55,15.008-2.282,32.593-4.987,48.268-1.008,5.838-2.628,9.18-4.132,14.333,1.735-1.206,2.612-2.8,3.832-4.709.97-1.521,2.211-3.507,3.035-5.158,5.643-11.311,8.792-24.942,14.414-35.882,4.189-8.152,11.521-18.153,18.116-23.435,1.448-1.159,2.916-2.416,4.565-3.638,2.822-2.09,7.5-5.351,11.521-5.811,3.007,5.254,5.706,7.416,5.706,15.286,0,8.316-5.5,15.189-3.371,22.547a28.048,28.048,0,0,0,4.775,8.679c1.5,1.985,3.568,4.032,4.7,6.477a2.616,2.616,0,0,1-.6,3.486c-2.334,2.375-4.461,2.02-7.845,3.98-.628,4.588,5.4,8.806-2.414,11.555,4.039,6.226,1.068,3.786-1.168,7.718-2.572,4.526,1.206,13.785-10.047,14.509-3.439.221-19.591-6.335-24.626,7.949h67.956c10.192,0,22.882,1.481,31.1-3.118,6.4-3.581,13.085-10.847,13.085-21.751V175.668c0-12.413-9.517-21.981-19.911-24.221-10.485-2.259-100.614,1.012-110.579-.745-8.271-1.459-5.046-9.973-7.322-14.955-1.41.579-.337-.163-1.387,1.08-2.682,3.178-6.412,11.609-15.8,21.069L250.357,171.9c-16.779,13.706-27.82,39.86-27.82,61.113,0,19.343,4.322,35.307,14.115,50.829,2.674,4.239,5.642,8.206,8.09,12.268-3.319-2.461-14.4-14.136-16.882-17.452.992-2.495,1.546-5.7-.356-7.892-3.808-4.4-7.284,2.408-10.672-6.808,1.769-2.454,3.927-4.022,2.084-8.583-1.4-3.452-3.821-4.084-8.559-4.186l-1.2-4.107c2.844-2.439,6.171-4.2,5.126-9.863-1.1-5.965-5.016-4.986-7.843-7.132-.37-4.251.4-22.119,4.3-22.967,1.693-.366,3.348-.207,4.82-.961a9.9,9.9,0,0,0,3.913-4.3c2.286-5.691-1.443-8.227-3.711-10.793,3.229-5.6,5.413-10.242,8.923-15.572,2.978-4.524,7.328-10.765,9.656-15.626,4.4-.109,7.312.366,9.448-3.313,2.545-4.385.313-7.419-1.582-10.149l2.438-4.815c11.562-.312,11.164-6.928,6.522-13.911l1.989-5.033c4.736.034,7.463-1.393,8.589-4.911,1.665-5.2-1.43-6.822-3.428-9.367,1.429-7.663,4.971-1.845,8.251-8.086,2.732-5.2-.6-7.618-3.806-10.64.373-6.112,3.924-2.03,5.4-7.159,1.952-6.784-4.823-5.761-3.938-10.4.784-1.98,6.93-4.593,2.966-9.548-1.709-2.137-3.631-.979-3.723-3.908-.111-3.541,1.758-.765,2.669-4.962,1.462-6.741-5.53-4.418-5.245-8.5.145-2.074,2.617-1.9,1.429-5.683-.726-2.316-2.438-2.178-4.534-3.06-.452-3.527,1.8-2.762.647-6.056-1.042-2.967-3.551-1.549-4.769-3.41-1.123-1.716,1.587-3.44-1.585-5.523-3.313-2.176-1.786-.223-4.211-3.933L237.167,3.63c-2.1-2.505-1.113-3.237-5.2-2.975,2.189,4.694,11.379,13.893,14.7,19.249,2.3,3.723.139,2.079.816,5.088.745,3.305,2.569,1.04,3.858,3.108.9,1.443-.86,2.254.016,5.916" fill="#d22717" fill-rule="evenodd"/>
    <path id="Tracé_84635" data-name="Tracé 84635" d="M127.443,248.232v5.852c0,29.877,18.42,59.871,37.138,79.6l10.008,11.054c1.813,1.9,3.047,3.86,4.9,5.655,2.982,2.884,8.51,9.516,11.009,10.858l-13.606-20.561c-4.284-7.195-8.273-13.858-12.218-21.747-22.59-45.172-22.355-88.767,22.07-119.958,5.074-3.562,9.5-6.429,15-9.569,2.513-1.435,5.169-2.809,7.981-4.3,4.8-2.55,4.2-1.485,6.883-6.022,3.143-5.326,6.633-10.076,9.811-15.337,1.845-3.055,3.96-4.612,2.693-7.488-2.048-4.651-1.054-5.625.67-9.821L196.859,164.6c-21.8,12.059-43.491,23.123-57.319,44.523-6.577,10.179-12.1,24.018-12.1,39.1" fill="#fac200" fill-rule="evenodd"/>
    <path id="Tracé_84636" data-name="Tracé 84636" d="M254.686,124.756c-1.4,4.387-.827,2.024.926,5.531,2.066,4.132-.181,10.686-4.491,12.5-2.468,1.04-5.741-.154-6.275,3.035.764,3.944,3.942,5.9.558,11.761-2,3.466-4.787,4.06-9.993,4.641-1.559,2.026-8.025,12.206-8.488,13.738,1.146-.8,3.628-1.947,5.284-2.907,30.786-17.858,52.477-37.457,56.9-75.928,2.486-21.615-6.589-40.186-14.991-55.541-9.524-17.409-15.807-23.055-25.977-36.064-1.526-1.953-3.031-2.959-4.356-4.611l8.087,13.174c2.973,4.956,5.42,9.019,8.227,13.977,5.027,8.879,10.2,20.375,12.772,31.749,7.737,34.152-8.85,48.631-9,52.541-.127,3.261,1.618,11.989-9.183,12.4" fill="#fac200" fill-rule="evenodd"/>
    <path id="Tracé_84637" data-name="Tracé 84637" d="M282.814,41.514c.963-1.906.438-14.4.438-17.411,0-8.562-5.2-14.643-9.6-18.342C267.624.7,259.531.112,249.784.475c.566,2.411,14.4,16.376,17.52,19.827,4.656,5.156,14.638,20.869,15.51,21.212" fill="#d63f31" fill-rule="evenodd"/>
    <path id="Tracé_84638" data-name="Tracé 84638" d="M234.239,143.338l2.341-.3a22.744,22.744,0,0,1,2.709.228l1.073-2.278-1.246-1.326c-1.5,1.054-3.332,2.4-4.877,3.678" fill="#fbc112" fill-rule="evenodd"/>
    <path id="Tracé_84639" data-name="Tracé 84639" d="M299.166,399.65h3.012c3.329.23,4.627-2.587,4.673-7.282V322.381a3.763,3.763,0,0,1,3.752-3.752h20.07a3.373,3.373,0,0,1,3.363,3.364V403.1c0,7.477-3.624,19.391-21.374,19.391H299.476a4.442,4.442,0,0,1-4.429-4.428v-14.3a4.131,4.131,0,0,1,4.119-4.118" fill="#007d37" fill-rule="evenodd"/>
    <path id="Tracé_84640" data-name="Tracé 84640" d="M448.121,399.65h3.012c3.329.23,4.627-2.587,4.673-7.282V322.381a3.763,3.763,0,0,1,3.752-3.752h20.07a3.373,3.373,0,0,1,3.363,3.364V403.1c0,7.477-3.624,19.391-21.374,19.391H448.431A4.441,4.441,0,0,1,444,418.064v-14.3a4.13,4.13,0,0,1,4.118-4.118" fill="#007d37" fill-rule="evenodd"/>
    <path id="Tracé_84641" data-name="Tracé 84641" d="M397.549,318.629h35.812a3.452,3.452,0,0,1,3.442,3.442v94.9a5.4,5.4,0,0,1-5.385,5.385H413.675a4.706,4.706,0,0,1-4.693-4.693V357.568a.979.979,0,0,0-1.64,0l-5.811,59.126a5.037,5.037,0,0,1-4.836,4.836H380.76a4.389,4.389,0,0,1-4.214-4.214l-5.858-59.748c-.219-.511-1.416-.548-1.62,0v59.4a5.4,5.4,0,0,1-5.384,5.385H345.94a4.706,4.706,0,0,1-4.692-4.693V322.469a3.85,3.85,0,0,1,3.839-3.84h34.466c1.893,0,3,1.6,3.442,3.442l3.133,13.169a2.574,2.574,0,0,0,5.029,0l2.552-12.771c.414-2.071,1.728-3.84,3.84-3.84" fill="#007d37" fill-rule="evenodd"/>
    <path id="Tracé_84642" data-name="Tracé 84642" d="M363.582,476.492h2.389c18.513,0,21.783,13.207,21.783,26.424v9.046c0,13.217-4.644,24.952-21.81,24.952h-2.075c-17.626,0-22.495-12.947-22.495-26.165v-7.932c0-12.418,4.389-26.325,22.208-26.325m.7,16.4h.335c2,0,3.06,3.763,3.06,10.99v5.651c0,6.981-1.031,10.989-3.063,10.989h-.292c-2.174,0-2.879-4.3-2.879-10.989v-5.651c0-7.295.9-10.99,2.839-10.99" fill="#007d37" fill-rule="evenodd"/>
    <path id="Tracé_84643" data-name="Tracé 84643" d="M295.235,481.213q.251,5.17.5,10.342c.789,2.517,2.648,2.664,4.671,2.446,8.194-1.4,14.689-1.671,15.126,2.114.313,3.322-1.561,5.65-3.614,7.9l-16.407,16.407c-.277.276-.331.328-.339.707l-.216,12.75c-.01,1.9.921,2.424,2.113,2.558H332.33c2.121.1,3.2-.878,3.559-2.614V522.975c0-2.21-.939-3.02-2.447-3.059h-8.47c-2.653-.015-3.3-3.015-1.5-3.944,7.579-4.827,13.151-11.244,12.481-22.613-.465-16.889-17.431-20.879-38.272-15.013-1.388.428-2.4,1.06-2.448,2.867" fill="#007d37" fill-rule="evenodd"/>
    <path id="Tracé_84644" data-name="Tracé 84644" d="M480.7,502.847c2.646-2.6,2.967-7.284,2.967-11.019,0-11.43-9.524-14.7-17.874-15.019a97.3,97.3,0,0,0-19.946,1.333c-1.795.366-3.341,1.637-3.341,3.477v8.871a3.227,3.227,0,0,0,3.341,3.215c5.6-.075,10.819-1.325,15.994-.12,2.519.72,2.4,4.234-.825,4.674l-10.2.152a3.374,3.374,0,0,0-3.346,3.346v8.87a3.422,3.422,0,0,0,3.346,3.347c3.649.191,7.184-.085,10.578.191,3.6.2,3.941,4.421.6,5.338-5.042.966-10.546-.152-16.145-.228a3.228,3.228,0,0,0-3.341,3.216v8.87c0,1.841,1.546,3.112,3.341,3.477a97.158,97.158,0,0,0,19.946,1.333c8.35-.322,18.15-4.3,18.15-15.733v-5.884a10.525,10.525,0,0,0-3.392-7.443,4.875,4.875,0,0,1,.149-4.264" fill="#007d37" fill-rule="evenodd"/>
    <path id="Tracé_84645" data-name="Tracé 84645" d="M297.148,468.43h21a1.915,1.915,0,0,0,1.91-1.91v-6.809a1.916,1.916,0,0,0-1.91-1.91h-7.824a2.288,2.288,0,0,1-2.6-2.439V433.189a2.324,2.324,0,0,0-2.317-2.318h-8.26a2.324,2.324,0,0,0-2.317,2.318v32.924a2.323,2.323,0,0,0,2.317,2.317" fill="#d22717" fill-rule="evenodd"/>
    <path id="Tracé_84646" data-name="Tracé 84646" d="M326.342,468.43h8.26a2.324,2.324,0,0,0,2.317-2.317V433.189a2.324,2.324,0,0,0-2.317-2.318h-8.26a2.324,2.324,0,0,0-2.317,2.318v32.924a2.324,2.324,0,0,0,2.317,2.317" fill="#d22717" fill-rule="evenodd"/>
    <path id="Tracé_84647" data-name="Tracé 84647" d="M344.6,457.638a71.883,71.883,0,0,0,12.719.809c1.941,0,2.057-2.019,0-2.382-10.413-.522-16.642-4.26-16.09-13.212.484-10.539,5.6-11.8,11.011-12.494a59.135,59.135,0,0,1,17.123,1.079,2.19,2.19,0,0,1,1.483,1.932v5.662a2.192,2.192,0,0,1-2.36,2.36,76.644,76.644,0,0,0-12.516-.7c-1.807.192-1.34,2.21,0,2.382,13.349,2.056,16.522,5.567,16.224,13.6-.147,9.174-4.95,11.864-12.988,12.512a60.426,60.426,0,0,1-15.685-1.483,2.479,2.479,0,0,1-1.887-2.787l.225-5.078a2.211,2.211,0,0,1,2.741-2.2" fill="#d22717" fill-rule="evenodd"/>
    <path id="Tracé_84648" data-name="Tracé 84648" d="M404.525,447.927c5.026-4.535,1.974-17.065-7.029-17.065H378.542A2.45,2.45,0,0,0,376.1,433.3v32.643a2.5,2.5,0,0,0,2.491,2.491h18.233c11.241,0,14.275-14.549,7.7-18.747Zm-14.137,5.731h2.088A2.351,2.351,0,0,1,394.82,456v1.3a2.213,2.213,0,0,1-2.207,2.206h-2.3a.948.948,0,0,1-.945-.946v-3.88a1.027,1.027,0,0,1,1.024-1.024m0-14.1h2.088a2.351,2.351,0,0,1,2.344,2.344v1.3a2.213,2.213,0,0,1-2.207,2.206h-2.3a.948.948,0,0,1-.945-.946v-3.88a1.027,1.027,0,0,1,1.024-1.024" fill="#d22717" fill-rule="evenodd"/>
    <path id="Tracé_84649" data-name="Tracé 84649" d="M458.369,430.882H474.6a2.545,2.545,0,0,1,2.362,1.951l7.077,33.483a1.536,1.536,0,0,1-1.537,1.951h-8.7a2.546,2.546,0,0,1-2.363-1.951,2.085,2.085,0,0,0-2.079-2.019h-5.721a2.292,2.292,0,0,0-2.1,2.019,2.546,2.546,0,0,1-2.363,1.951h-8.7a1.536,1.536,0,0,1-1.538-1.951l7.077-33.483a2.546,2.546,0,0,1,2.362-1.951m5.688,20.586q.774-4.839,1.55-9.681a.973.973,0,0,1,1.659,0q.774,4.842,1.55,9.681h0a2.369,2.369,0,0,1,.032.387,2.41,2.41,0,1,1-4.821,0,2.482,2.482,0,0,1,.031-.387" fill="#d22717" fill-rule="evenodd"/>
    <path id="Tracé_84650" data-name="Tracé 84650" d="M428.192,430.373h1.836c10.924,0,16.733,6.943,16.733,15.427v7.932c0,8.483-5.639,15.426-16.754,15.426h-1.6c-11.891,0-17.28-6.942-17.28-15.426V445.8c0-8.485,6.484-15.427,17.06-15.427m.56,10.525h.473c2.818,0,4.316,2.415,4.316,7.054v3.627c0,4.482-1.455,7.055-4.321,7.055h-.411c-3.067,0-4.457-2.76-4.457-7.055v-3.627c0-4.682,1.672-7.054,4.4-7.054" fill="#d22717" fill-rule="evenodd"/>
  </g>
</svg>
