<svg xmlns="http://www.w3.org/2000/svg" xmlns:xlink="http://www.w3.org/1999/xlink" width="215" height="215" viewBox="0 0 215 215">
  <defs>
    <filter id="Tracé_84630" x="0" y="0" width="215" height="215" filterUnits="userSpaceOnUse">
      <feOffset dy="3" input="SourceAlpha"/>
      <feGaussianBlur stdDeviation="3" result="blur"/>
      <feFlood flood-opacity="0.271"/>
      <feComposite operator="in" in2="blur"/>
      <feComposite in="SourceGraphic"/>
    </filter>
  </defs>
  <g id="BTN_Tampon_carte" data-name="BTN Tampon carte" transform="translate(-4571 -555)">
    <g transform="matrix(1, 0, 0, 1, 4571, 555)" filter="url(#Tracé_84630)">
      <path id="Tracé_84630-2" data-name="Tracé 84630" d="M98.5,0A98.5,98.5,0,1,1,0,98.5,98.5,98.5,0,0,1,98.5,0Z" transform="translate(9 6)" fill="#f5f5f5" opacity="0.65"/>
    </g>
    <g id="Groupe_79450" data-name="Groupe 79450" transform="translate(2247 -15920.511)">
      <text id="J_y_vais_" data-name="J&apos; y vais," transform="translate(2423.107 16547.324) rotate(-7)" fill="#2f5690" font-size="19" font-family="Montserrat-Bold, Montserrat" font-weight="700"><tspan x="-40.147" y="0">J&apos; y vais,</tspan></text>
      <text id="me_voici_" data-name="me voici " transform="translate(2456.292 16578.641) rotate(-7)" fill="#2f5690" font-size="19" font-family="Montserrat-Bold, Montserrat" font-weight="700"><tspan x="-44.488" y="0">me voici </tspan></text>
      <text id="Seigneur" transform="translate(2425.598 16616.145) rotate(-7)" fill="#2f5690" font-size="22" font-family="Montserrat-Bold, Montserrat" font-weight="700"><tspan x="-51.876" y="0">Seigneur</tspan></text>
      <g id="chevrons" transform="translate(2488.637 16598.27) rotate(-11)">
        <path id="Tracé_67044" data-name="Tracé 67044" d="M0,0,5.3,5.3,0,10.6" fill="none" stroke="#e3a11d" stroke-linecap="round" stroke-linejoin="round" stroke-width="4"/>
        <path id="Tracé_67045" data-name="Tracé 67045" d="M0,0,5.3,5.3,0,10.6" transform="translate(8.875 0)" fill="none" stroke="#e3a11d" stroke-linecap="round" stroke-linejoin="round" stroke-width="4"/>
      </g>
    </g>
    <g id="_2" data-name="2" transform="translate(3621.653 300.801)" opacity="0.58">
      <path id="Tracé_84554" data-name="Tracé 84554" d="M1131.958,295.123l-.284-.324a1.39,1.39,0,0,0-.3.556C1131.59,295.269,1131.78,295.193,1131.958,295.123Z" fill="#333"/>
      <path id="Tracé_84555" data-name="Tracé 84555" d="M1129.621,425.1a8.328,8.328,0,0,0-1.137,1.192C1128.868,425.9,1129.244,425.5,1129.621,425.1Z" fill="#333"/>
      <path id="Tracé_84556" data-name="Tracé 84556" d="M1129.805,418.858c-.288.332-.583.659-.878.988A1.47,1.47,0,0,0,1129.805,418.858Z" fill="#333"/>
      <path id="Tracé_84557" data-name="Tracé 84557" d="M1123.453,287.959a5.316,5.316,0,0,0-3.286-.321q2.03,1.732,3.941,3.592a9.717,9.717,0,0,0,3.2-1.1c-.1-.1-.2-.192-.3-.289-.587,0-.561-.254-.539-.525-.218-.212-.433-.426-.652-.635a5.689,5.689,0,0,0-1.156.052c-1.885.559.614,1.1-2.127.934.306-1.166,1.745-1.109,2.975-1.274q-.52-.492-1.048-.975c-.332.072-.608.136-.769.165Z" fill="#333"/>
      <path id="Tracé_84558" data-name="Tracé 84558" d="M1125.254,292.358c.3.3.594.611.889.918C1126.387,292.845,1126.151,292.464,1125.254,292.358Z" fill="#333"/>
      <path id="Tracé_84559" data-name="Tracé 84559" d="M1129.015,294.017c-.688.009-1.391-.034-2.166,0q.695.74,1.372,1.494C1128.415,295.085,1128.663,294.707,1129.015,294.017Z" fill="#333"/>
      <path id="Tracé_84560" data-name="Tracé 84560" d="M1089.816,269.307l-1.184.656,1.136-.774c-.346-.6-1.962.456-3.281.276-.792.914,1.657,1.244,4.738,1.463l-1.463.506a79.007,79.007,0,0,1,9.261,3.2c3.106-.907-1.567-1.14.329-2.189l1.4.189a2.066,2.066,0,0,0,.7-.444c-.363-.165-.727-.333-1.093-.492a10.514,10.514,0,0,0-3.112.462c.147-.438,1.5-.6,2.589-.682a82.581,82.581,0,0,0-8.777-3.169l-1.3.884A.452.452,0,0,1,1089.816,269.307Z" fill="#333"/>
      <path id="Tracé_84561" data-name="Tracé 84561" d="M992.285,426.672c.442.448.889.894,1.341,1.333.042-.015.075-.02.119-.035-.159-.63,4.2-2.078.228-1.8,1.284-.23,4.567-.6,3.324-.16a1.709,1.709,0,0,0,1.067.017q-1.308-1.23-2.565-2.515a7.356,7.356,0,0,1-2.461.12,3.321,3.321,0,0,1,1.231-1.4,89.719,89.719,0,0,1-6.557-7.82c-.78,2.163-1.772,4.811-1.562,5.732q2.649,3.275,5.593,6.289c.236,0,.553.011.981.022A3.458,3.458,0,0,0,992.285,426.672Z" fill="#333"/>
      <path id="Tracé_84562" data-name="Tracé 84562" d="M966.788,359.237c.484-.087,1.065-.218,1.706-.371q-.167-3.162-.148-6.364a3.507,3.507,0,0,0-.861.1,2.707,2.707,0,0,1,.863-.543c.025-2.787.149-5.592.387-8.411l-2.268.86,2.063-1.148.229.033q.2-2.293.488-4.6c5.763-42.934,43.192-72.65,88.664-71.959-.008-1.177-3.526-.806-1.689-2.509,1.343-.023.645-.115.76.3,3.526-.639,1.306,1.5.963,2.206q3.06.048,6.167.283a3.614,3.614,0,0,0,1.5-.295,2.174,2.174,0,0,1-.271.392c.518.045,1.038.1,1.558.151a7.055,7.055,0,0,1,2.285-1.074c-.8-.52-2.23.511-3.375-.055l3.857-.7-.307-1.266c-.737,1.124-4.818.98-4.96,1.778l-.5-.324c-.082.006-.157.015-.244.017l-.455-.471.7.454a5.353,5.353,0,0,0,2.535-1.036c1.731-.167,2.336-.443,2.383-.737q-1.92-.21-3.841-.334c-.054.012-.1.025-.159.036-.278.021-.274,0-.12-.055a94.881,94.881,0,0,0-43.978,8.032,2.555,2.555,0,0,0,.429.562,4.738,4.738,0,0,1-1.594-.044c-28,12.721-49.8,38.11-54.606,67.884a116.923,116.923,0,0,0-.769,17.314l.078-.089C965.063,357.78,965.277,358.629,966.788,359.237Z" fill="#333"/>
      <path id="Tracé_84563" data-name="Tracé 84563" d="M984.748,416.548c.139.078.28.156.417.236l.258-1.048A2.879,2.879,0,0,1,984.748,416.548Z" fill="#333"/>
      <path id="Tracé_84564" data-name="Tracé 84564" d="M982.615,407.693l.772-.1q-.623-1.011-1.223-2.035l-.01.92-.949.455.845-1.569q-1.026-1.767-1.978-3.588l-.762.764c.036-.213.354-.5.745-.8q-.6-1.15-1.178-2.317l-.7.127c-.874.255-1.841.613-2.791.832-.342-.05,2.083-1.147.921-1.711a11.8,11.8,0,0,1-2.4,1.112,98.221,98.221,0,0,0,5.986,11.131C982.419,409.633,982.361,409.154,982.615,407.693Z" fill="#333"/>
      <path id="Tracé_84565" data-name="Tracé 84565" d="M982.595,412.994a.466.466,0,0,1,.181.192c.011-.053.022-.108.032-.161Z" fill="#333"/>
      <path id="Tracé_84566" data-name="Tracé 84566" d="M976.927,399.783l1.248-.225c.234-.069.46-.126.677-.174a100.186,100.186,0,0,1-4.255-10.056,4.288,4.288,0,0,1-1.717-.3l-1.87.676a3.431,3.431,0,0,1-.606.219l.606-.219c1.384-.666-.642-1.533,2.552-2.007l-1.678,1.4a5.357,5.357,0,0,1,2.52-.3c-.231-.65-.453-1.3-.671-1.96L973,386.8c.444.813-1.853.811-3.665,1.159q1.433,4.5,3.245,8.822a4.431,4.431,0,0,0,.744-.105l.081-.238.047.211c-.047.011-.084.017-.128.027l-.321.936c-.024,0-.044,0-.068-.006.2.47.4.941.614,1.407a4.176,4.176,0,0,0,3-.715C976.468,399.312,979,398.636,976.927,399.783Z" fill="#333"/>
      <path id="Tracé_84567" data-name="Tracé 84567" d="M969.36,368.02c-.478.159.377.319-1.742-.106-.26.381-1.322,1.454-1.443,1.035.536-.624-.2-.66-1.128-.546q.132,1.042.284,2.079c1.074-.674,2.158-.637,4.271-.837C969.519,369.1,969.435,368.564,969.36,368.02Z" fill="#333"/>
      <path id="Tracé_84568" data-name="Tracé 84568" d="M964.824,360.8c.7.352,2.155.1,3.771-.248-.034-.5-.063-1-.09-1.5a22.86,22.86,0,0,1-4.234.638c.023.452.054.9.082,1.352l.658-.824Z" fill="#333"/>
      <path id="Tracé_84569" data-name="Tracé 84569" d="M965.394,370.91l.058.4C965.953,371.052,966.283,370.85,965.394,370.91Z" fill="#333"/>
      <path id="Tracé_84570" data-name="Tracé 84570" d="M965.276,365.362c.159-.492,2.233-1.7,3.556-1.887l0-.034c-.582-.075-.423-.228-.036-.409-.029-.324-.054-.65-.081-.975-.268.194-.953.495-1.567.8a2.814,2.814,0,0,1-.89,1c-.584-.185.087-.6.89-1,.428-.879-.081-1.733-2.765-1.4q.154,2.393.411,4.763l2.583-.575Z" fill="#333"/>
      <path id="Tracé_84571" data-name="Tracé 84571" d="M1097.186,445.516c-2.532.674-2.764-1.6-1.766-1.667l.981-.072a2.193,2.193,0,0,1-.41-.222,88.08,88.08,0,0,1-9.176,3.338c-.595.259-.812.306-.885.254-.484.142-.968.281-1.455.413a.357.357,0,0,0,.115.115c-.107-.015-.217-.036-.329-.06a76.506,76.506,0,0,1-38.848.531,83.3,83.3,0,0,1-32.74-11.265c-.608.782.654,1.2-.076,1.82l-2.532-.16a4.547,4.547,0,0,1-1.381,1.13,84.035,84.035,0,0,0,10.538,5.428,5.941,5.941,0,0,0,1.326-.716,4.016,4.016,0,0,1-.429-.18l-.082,0-1.624.182,1.177-.654c.048.185.253.341.529.476.391.014.5.08.429.18,1.015.359,2.379.542,1.752.727l-.761-.3-.956.866a89.83,89.83,0,0,0,24.224,6.079,85.628,85.628,0,0,0,29.943,1.557l.116-.022-.023.01a87.613,87.613,0,0,0,16.543-3.724c.117-.107.23-.213.331-.313.059.037.041.111-.012.206q3.666-1.224,7.218-2.765a5.327,5.327,0,0,1,.786-1.863C1098.425,445.068,1097.435,445.138,1097.186,445.516Zm-47.289,5.873c.444-.052.672-.043.278.174a.392.392,0,0,1-.278-.174c-.892.1-2.668.447-2.144-.163C1049.67,450.162,1049.609,450.994,1049.9,451.389Z" fill="#333"/>
      <path id="Tracé_84572" data-name="Tracé 84572" d="M1141.3,308.132c-1.23.016-2.1.422-3.594.149.149.245.3.489.449.737a10.588,10.588,0,0,0,1.673-.066c1.645-.118.375,1.049-.558,1.974a95.759,95.759,0,0,1,11.2,62.057,85.308,85.308,0,0,1-19.4,44.381,6.527,6.527,0,0,0,2.543.066l-2.054,1.141c1.433.2,2.668-.475,4.357-.883.243-.32.487-.64.727-.961-.805.006-1.978.149-2.243-.212l1.985-.138.629-1.547c.409-.059.786-.129,1.145-.207q1.612-2.293,3.091-4.7c-.411.1-.734.064-.834-.343a2.818,2.818,0,0,0,1.2-.252c.062-.1.124-.2.185-.3,0-.158-.059-.325.039-.47-1.2-.777.332-1.391,1.447-2.246a1.976,1.976,0,0,0-.305.7,96,96,0,0,0,11.719-35.347,97.551,97.551,0,0,0-14.51-65.5C1139.17,307.009,1140.023,307.776,1141.3,308.132Z" fill="#333"/>
      <path id="Tracé_84573" data-name="Tracé 84573" d="M1131.1,296.951a5.53,5.53,0,0,1-1.608.013c.177.208.351.419.528.628C1130.655,297.455,1131.166,297.224,1131.1,296.951Z" fill="#333"/>
      <path id="Tracé_84574" data-name="Tracé 84574" d="M1131.356,298c-1.142.416-.287.746.835.439.089-.024.179-.051.27-.084-.091.033-.181.06-.27.084a1.574,1.574,0,0,1-1.2.324l.01.011c2.494.384,2.345,1.594,5.25,1.69q-.907-1.215-1.853-2.4l-.254.317C1132.562,298.788,1134.83,297.052,1131.356,298Z" fill="#333"/>
      <path id="Tracé_84575" data-name="Tracé 84575" d="M982.97,415.546a2.414,2.414,0,0,0,.29-.112,1.041,1.041,0,0,0-.522-.21C982.813,415.332,982.893,415.438,982.97,415.546Z" fill="#333"/>
      <path id="Tracé_84576" data-name="Tracé 84576" d="M1131.941,297.678l1.874-.337q-.91-1.119-1.851-2.211C1128.982,296.235,1132.307,296.578,1131.941,297.678Z" fill="#333"/>
      <path id="Tracé_84577" data-name="Tracé 84577" d="M982.727,413.441a2.97,2.97,0,0,1-.867.5c.189.279.378.555.569.831C982.532,414.331,982.637,413.89,982.727,413.441Z" fill="#333"/>
      <path id="Tracé_84578" data-name="Tracé 84578" d="M1133.986,420.124c.328-.4.656-.8.976-1.2-2.61.233-3.237.92-6.477,1.424-.035.039-.069.079-.1.118.4.387.61.473-.826,1.037l-.066-.078c-.311.334-.623.668-.939,1l2.108-.565-.631,1.551-1.677-.781q-2.615,2.7-5.436,5.18l.836.042c-.176-.634,1.759-.982,3.057-1.209-.995-.141.843-.98-.576-.779a2.453,2.453,0,0,1-.579.213l.3-.167c.108-.019.2-.034.283-.046.875-.461.657-1.267,1.819-2.318l-.49.745c3.627-.65,3.076-.257,5.6-.857q1.44-1.608,2.812-3.283a.215.215,0,0,0-.019-.012Z" fill="#333"/>
      <path id="Tracé_84579" data-name="Tracé 84579" d="M1010.746,437.366a1.174,1.174,0,0,1-.171.32l-.31.578c-.01.017-.03.036-.04.053a1.706,1.706,0,0,0,.832-2.431q-1.146-.726-2.263-1.49l-.4-.1a.944.944,0,0,1,.03-.153q-.959-.662-1.9-1.346a2.175,2.175,0,0,0-.811.8l.538-1a85.284,85.284,0,0,1-7.138-5.875l-1.181,1.82c-1.044-.141-2.446-.327-2.9-.8l-1.255.409c.4.388.8.777,1.213,1.157a6.222,6.222,0,0,0,.707-.256l-.138.773.022.019c1.29-.236,2.162-.715,2.913-.413-1.717.571-1.7,1.156-1.426,1.742q2.327,2.025,4.8,3.893a6.206,6.206,0,0,0,.828-.682,4.8,4.8,0,0,0-.565.877c.173.129.348.253.522.381.77-.248,1.859-.961.515.057-.068.064-.132.119-.194.174q.824.6,1.667,1.18l1.055-1.241-.327,1.039-.485.37q1.731,1.184,3.53,2.288c.236-.394,1.631-1.094,2.156-1.825A1.174,1.174,0,0,0,1010.746,437.366Z" fill="#333"/>
      <path id="Tracé_84580" data-name="Tracé 84580" d="M1103.349,276.245l2.057-1.147-.023,1.222c-.045-.169-.9-.183-2.166.2a79.209,79.209,0,0,1,8.409,4.742c.829-.514,1.332-.958,2.061-1.366-.647.117-1.282.234-1.348.024a13.213,13.213,0,0,1,2.093-.448,86.032,86.032,0,0,0-10.654-6.2l-1.957.928C1105.34,273.459,1101.247,275.96,1103.349,276.245Z" fill="#333"/>
      <path id="Tracé_84581" data-name="Tracé 84581" d="M1088.005,268.861l2.331-.774c-.3-.085-.6-.17-.9-.253A3.971,3.971,0,0,1,1088.005,268.861Z" fill="#333"/>
      <path id="Tracé_84582" data-name="Tracé 84582" d="M1111.956,281.476l.031.02A.152.152,0,0,0,1111.956,281.476Z" fill="#333"/>
      <path id="Tracé_84583" data-name="Tracé 84583" d="M1100.523,274.439a5.841,5.841,0,0,1-1.095.362q.673.283,1.341.578C1101.253,274.99,1101.392,274.556,1100.523,274.439Z" fill="#333"/>
      <path id="Tracé_84584" data-name="Tracé 84584" d="M985.041,410.676a1.729,1.729,0,0,1,.361.121l.032-.025c-.032-.045-.06-.09-.09-.135C985.243,410.65,985.142,410.657,985.041,410.676Z" fill="#333"/>
      <path id="Tracé_84585" data-name="Tracé 84585" d="M986.855,413.5l.427-.085-.159-.217C987.035,413.3,986.946,413.4,986.855,413.5Z" fill="#333"/>
      <path id="Tracé_84586" data-name="Tracé 84586" d="M973.2,385.176c-.085-.271-.173-.542-.257-.815l-2.26-.121c2.879-1.995-.422-3.262.915-4.718q-1.092-4.324-1.825-8.789c-1.174.094-2.433.149-3.418.277l-.725,1.127h-.047q.669,4.149,1.642,8.2a.5.5,0,0,1,.283.615l-.131.028q.8,3.246,1.79,6.416l2.77-2.169A4.559,4.559,0,0,1,973.2,385.176Z" fill="#333"/>
      <path id="Tracé_84587" data-name="Tracé 84587" d="M1097.3,442.99c2.179-.121,4.407.995,2.517,2.272l2.292-.3a.831.831,0,0,0-.149.369q3.88-1.848,7.579-4.065c1.018-1.3,3.608-2.935,6.025-4.467-2.466-1.425-.391-2.88-.63-4.146A92.888,92.888,0,0,1,1097.3,442.99Z" fill="#333"/>
      <path id="Tracé_84590" data-name="Tracé 84590" d="M1003.6,369.481l-.214.039c.066.288.133.576.2.863.067-.041.135-.081.2-.122C1003.727,370,1003.666,369.741,1003.6,369.481Z" fill="#333"/>
      <path id="Tracé_84591" data-name="Tracé 84591" d="M1011.733,387.707l-.146.2c.073-.031.146-.064.218-.1Z" fill="#333"/>
      <path id="Tracé_84593" data-name="Tracé 84593" d="M1029.713,405c.011-.013.027-.028.04-.042-.029-.017-.059-.039-.088-.057A.9.9,0,0,0,1029.713,405Z" fill="#333"/>
      <path id="Tracé_84596" data-name="Tracé 84596" d="M1026.647,405.836q.644.461,1.3.9C1028.881,405.29,1027.636,405.7,1026.647,405.836Z" fill="#333"/>
      <path id="Tracé_84613" data-name="Tracé 84613" d="M1054.3,426.546c-.762.873-1.442,1.742-.367,2.271l-.967.2a77.586,77.586,0,0,0,33.9-4.482c-.352-.578.621-1.108-.022-2.088-.081-.287-1.159-.8-1.635-.394C1074.742,425.77,1065.226,427.564,1054.3,426.546Z" fill="#333"/>
      <path id="Tracé_84614" data-name="Tracé 84614" d="M1026.252,419.429l.868-1.183c-.916.3-1.5-.222-1.58-1.145l-.411-.234a2.289,2.289,0,0,1-.206.222l-1.427-.419a18.818,18.818,0,0,0-1.285,1.446q1.711.972,3.348,1.849A2.343,2.343,0,0,1,1026.252,419.429Z" fill="#333"/>
      <path id="Tracé_84615" data-name="Tracé 84615" d="M1022.552,416.681c-.162.3-.472.446-.626.742.872-1.259.411-1.521-.184-1.633a.21.21,0,0,0,0,.079c-1.57.047-1.011.474.134.553a1.587,1.587,0,0,0-1.191.818c.508.3,1.008.581,1.507.865C1022.453,417.57,1023.046,416.8,1022.552,416.681Z" fill="#333"/>
      <path id="Tracé_84616" data-name="Tracé 84616" d="M1050.4,426.076c-.358-.054-.721-.115-1.084-.176l-.454.193.454-.193c-.6-.1-1.191-.193-1.8-.307a45.266,45.266,0,0,1-7.031-1.642l-.322.025.168-.072q-1.971-.63-3.935-1.425c-.764.606-2.675,1.252-3.045.889.128-.393-.523-.251-1.277-.157a66.491,66.491,0,0,0,14.7,4.927c1.12.21,2.234.382,3.345.537C1050.607,427.749,1050.237,426.936,1050.4,426.076Z" fill="#333"/>
      <path id="Tracé_84617" data-name="Tracé 84617" d="M1033.937,421.611c.792.112.9.594,1.735.574-1.813-.756-3.63-1.614-5.467-2.554l-.394.189a2.255,2.255,0,0,1-2.455,1.091q2.2,1.135,4.292,2.1C1033.323,422.418,1034.026,421.987,1033.937,421.611Z" fill="#333"/>
      <path id="Tracé_84618" data-name="Tracé 84618" d="M1028.6,418.789c-.215-.114-.43-.226-.645-.344-.011.026-.019.049-.03.076-.532.363-1.164.625-1.669.908l-.479.651q.672.359,1.332.7a4.18,4.18,0,0,0,.8-1.37A7.072,7.072,0,0,1,1028.6,418.789Z" fill="#333"/>
      <path id="Tracé_84619" data-name="Tracé 84619" d="M1015.2,425.011l.042.025C1015.517,425.013,1015.645,425.028,1015.2,425.011Z" fill="#333"/>
      <path id="Tracé_84620" data-name="Tracé 84620" d="M1090.2,433.758a2.779,2.779,0,0,0,.824-.714c-.6-.177-1.2-.234-1.335-.048-.391.168-.788.319-1.18.48C1088.478,433.812,1088.284,434.235,1090.2,433.758Z" fill="#333"/>
      <path id="Tracé_84621" data-name="Tracé 84621" d="M1091.786,435.011c.659.012.967-.113,1.022-.336a2.511,2.511,0,0,0-1,.113Z" fill="#333"/>
      <path id="Tracé_84622" data-name="Tracé 84622" d="M1085.434,434.942l3.175-.793-.495-.514a73.473,73.473,0,0,1-41.236,3.969,86.8,86.8,0,0,1-31.632-12.568c-.406.037-1.135.166-.764.646.09,0-1.87.229-.733.334.353.622-1.168,1.05,1.254,1.432q3.876,2.64,7.747,4.763l.3-.25.7.1-.632.347a66.812,66.812,0,0,0,21.329,7.526,83.015,83.015,0,0,0,24.422.888l.155-.156-.1.15c.651-.076,1.3-.161,1.945-.249l.147-.041c-.027.015-.057.019-.084.032a66.1,66.1,0,0,0,14.756-3.769C1086.626,436.018,1087.084,435.323,1085.434,434.942Zm-49.084,1.681,2.126-.933-1.09,1.074Zm32.456,3.193.893-.493,1.928-.348Z" fill="#333"/>
      <path id="Tracé_84623" data-name="Tracé 84623" d="M1069.072,286.065c2.193-.724-.071,1.009,1.019,1.363a1.719,1.719,0,0,0,.755-.087.9.9,0,0,0,.19-.2c.014.081-.066.147-.19.2a1.844,1.844,0,0,1-.278.178c.7.08,1.4.166,2.067.262a69.638,69.638,0,0,1,32.753,16.138c1.908.83,2.05.939,2.245.155,1.315-.268-.635-1.216,1.194-1.13-10.361-9.115-21.407-14.889-34.3-16.955q-2.3-.405-4.571-.7A2.039,2.039,0,0,0,1069.072,286.065Zm25.659,9.611c-.7-.1-2.1-.282-.507-.685.646-.115,1.4.193,1.984-.136Zm-2.773-1.6-.342-.052,2.071-1.148.362.047Z" fill="#333"/>
      <path id="Tracé_84624" data-name="Tracé 84624" d="M1045.624,287.976c3.281-.4,2.279.324,1.929.956a38.168,38.168,0,0,1,9.037-1.711c.937-.83.183-1.632,1.386-2.465-2.682.044-3.719,1.335-4.661,1.613l2.663-1.687q-1.9.112-3.737.35l-2.116.7c.166-.091.011-.227,0-.377-.969.172-1.915.38-2.847.614C1047.357,286.487,1047.069,287.06,1045.624,287.976Z" fill="#333"/>
      <path id="Tracé_84625" data-name="Tracé 84625" d="M1044.769,288.231c.1.046.2.093.324.149-.765.1-.736.321-.294.512a2.9,2.9,0,0,1,.825-.916Z" fill="#333"/>
      <path id="Tracé_84626" data-name="Tracé 84626" d="M1110.314,292.558l1.263-.914-1.294.232,1.3-.234,0,0,1.293-.233-2.524,1.173c1.094.957,2.154,1.936,3.155,2.947.779.379,1.912.691,1.586.021,1.675-.2,1.547-1.152,2.575-1.415q-2.57-2.139-5.126-4.055a10.147,10.147,0,0,1-4.076.92Q1109.406,291.765,1110.314,292.558Z" fill="#333"/>
      <path id="Tracé_84627" data-name="Tracé 84627" d="M1103.717,284.456c.15-.02.282-.03.423-.044a83.167,83.167,0,0,0-19.357-8.53l-3.16,1.081.54-.54,2.561-.559q-1.577-.47-3.207-.9a19.459,19.459,0,0,1-2.952,1.6,75.268,75.268,0,0,1,23.706,9.978C1103.274,285.827,1103.879,285.137,1103.717,284.456Z" fill="#333"/>
      <path id="Tracé_84628" data-name="Tracé 84628" d="M1107.017,289.6l2.184-.722-2.022,1.114c.143.111.3.218.436.329a25.066,25.066,0,0,1,4.17-.785q-1.268-.935-2.544-1.818a6.91,6.91,0,0,0-.958.221C1108.606,289.2,1107.4,288.42,1107.017,289.6Z" fill="#333"/>
      <path id="Tracé_84629" data-name="Tracé 84629" d="M1061.688,274.048c-.589.328-.384,1.169-.836.7l.036-1.217,1.45.4a5.133,5.133,0,0,0,2.223-1.484,110.943,110.943,0,0,0-23.644,2.114c.409.692-1.368.768-1.733,1.167,1.585.613,2.727.914,1.319.863-.927.49-.344.755,2.338,1.063,5.728-1.8,12.924-2.569,20.1-2.541C1063.06,274.588,1062.513,274.157,1061.688,274.048Z" fill="#333"/>
    </g>
  </g>
</svg>
