<svg xmlns="http://www.w3.org/2000/svg" width="60.146" height="60.147" viewBox="0 0 60.146 60.147">
  <path id="Facebook" d="M1429.717,983.778a30.073,30.073,0,1,0,30.074,30.073A30.107,30.107,0,0,0,1429.717,983.778Zm8.343,17.839a.454.454,0,0,1-.453.453h-3.617a1.607,1.607,0,0,0-1.607,1.607v3.787h5.143a.455.455,0,0,1,.453.492l-.451,5.338a.455.455,0,0,1-.453.415h-4.692v17.714a.456.456,0,0,1-.455.455h-6.473a.454.454,0,0,1-.453-.455v-17.714h-3.237a.454.454,0,0,1-.453-.454v-5.338a.454.454,0,0,1,.453-.453H1425v-5.146a6.492,6.492,0,0,1,6.493-6.492h6.112a.454.454,0,0,1,.453.453Z" transform="translate(-1399.644 -983.778)" fill="#b75725"/>
</svg>
