<svg xmlns="http://www.w3.org/2000/svg" width="59.755" height="59.753" viewBox="0 0 59.755 59.753">
  <path id="Insta" d="M1340.655,1044.29a29.876,29.876,0,1,1,29.878-29.876A29.911,29.911,0,0,1,1340.655,1044.29Zm10.073-42a2.211,2.211,0,1,0,2.212,2.211A2.211,2.211,0,0,0,1350.729,1002.292Zm-9.829,2.834a9.287,9.287,0,1,0,9.288,9.288A9.3,9.3,0,0,0,1340.9,1005.126Zm0,15.237a5.949,5.949,0,1,1,5.95-5.948A5.955,5.955,0,0,1,1340.9,1020.363Zm18.739-13.668a11.327,11.327,0,0,0-11.327-11.327h-14.95a11.326,11.326,0,0,0-11.328,11.327v14.951a11.328,11.328,0,0,0,11.328,11.329h14.95a11.328,11.328,0,0,0,11.327-11.329Zm-3.548,14.951a7.78,7.78,0,0,1-7.779,7.781h-14.95a7.78,7.78,0,0,1-7.781-7.781V1006.7a7.779,7.779,0,0,1,7.781-7.779h14.95a7.779,7.779,0,0,1,7.779,7.779Z" transform="translate(-1310.778 -984.537)" fill="#b75725"/>
</svg>
