<svg xmlns="http://www.w3.org/2000/svg" xmlns:xlink="http://www.w3.org/1999/xlink" width="101.965" height="96.94" viewBox="0 0 101.965 96.94">
  <defs>
    <filter id="Tracé_80569" x="0" y="0" width="101.965" height="96.94" filterUnits="userSpaceOnUse">
      <feOffset dy="11" input="SourceAlpha"/>
      <feGaussianBlur stdDeviation="6" result="blur"/>
      <feFlood flood-opacity="0.161"/>
      <feComposite operator="in" in2="blur"/>
      <feComposite in="SourceGraphic"/>
    </filter>
  </defs>
  <g id="Menu" transform="translate(18 7)">
    <g transform="matrix(1, 0, 0, 1, -18, -7)" filter="url(#Tracé_80569)">
      <path id="Tracé_80569-2" data-name="Tracé 80569" d="M191.694,208.941h0a13.636,13.636,0,0,1-2.815-.309,18.543,18.543,0,0,1-2.911-.888,29.83,29.83,0,0,1-5.975-3.275,51.24,51.24,0,0,1-5.954-4.882,73.791,73.791,0,0,1-5.663-6.017c-1.784-2.112-3.5-4.359-5.1-6.679-1.573-2.277-3.01-4.589-4.272-6.871a60.1,60.1,0,0,1-3.172-6.59,32.488,32.488,0,0,1-1.8-5.838,15.464,15.464,0,0,1-.284-2.277,9.586,9.586,0,0,1,.1-1.908,6.5,6.5,0,0,1,.448-1.571,5.345,5.345,0,0,1,.773-1.267,5.633,5.633,0,0,1,1-.942,7.226,7.226,0,0,1,1.239-.729,12.577,12.577,0,0,1,3.112-.927,47.536,47.536,0,0,1,8.13-.484c.661,0,1.317,0,2.012.006h.1c.7,0,1.422.007,2.157.007a62.345,62.345,0,0,0,12.03-.881,76.991,76.991,0,0,0,13.732-4.592c2.608-1.055,5.07-2.051,7.378-2.8a30.832,30.832,0,0,1,3.314-.895,14.9,14.9,0,0,1,2.976-.335,8,8,0,0,1,2.449.35,5.867,5.867,0,0,1,1.07.465,5.557,5.557,0,0,1,.958.682,6.1,6.1,0,0,1,.839.916,7.64,7.64,0,0,1,.713,1.169,12.551,12.551,0,0,1,1.019,3.167,23.591,23.591,0,0,1,.411,4.232,40.955,40.955,0,0,1-.252,4.955c-.186,1.732-.475,3.575-.858,5.477-.379,1.882-.853,3.832-1.408,5.8s-1.2,3.955-1.9,5.914c-.714,1.981-1.5,3.943-2.338,5.831-.855,1.928-1.769,3.793-2.718,5.545-.977,1.8-2,3.505-3.041,5.057a37.333,37.333,0,0,1-6.386,7.473,15.355,15.355,0,0,1-6.952,3.707A11.031,11.031,0,0,1,191.694,208.941Z" transform="translate(-135.73 -141)" fill="#b75725"/>
    </g>
    <g id="Groupe_78383" data-name="Groupe 78383" transform="translate(25.417 19.631)">
      <line id="focus" x2="25.044" transform="translate(0 0)" fill="none" stroke="#fff" stroke-linecap="round" stroke-width="4"/>
      <line id="focus-2" data-name="focus" x2="20.348" transform="translate(0 10.957)" fill="none" stroke="#fff" stroke-linecap="round" stroke-width="4"/>
      <line id="focus-3" data-name="focus" x2="14.087" transform="translate(0 21.913)" fill="none" stroke="#fff" stroke-linecap="round" stroke-width="4"/>
    </g>
  </g>
</svg>
