<svg width="466" height="266" viewBox="0 0 466 266" fill="none" xmlns="http://www.w3.org/2000/svg">
<path fill-rule="evenodd" clip-rule="evenodd" d="M462 5H4V243H462V5ZM368 27H28V214L103 217L234.5 219.5L368 215V27Z" fill="white"/>
<path d="M0.103852 9.4291C-0.115815 5.3893 3.46162 4.41849 7.6039 3.82348C11.7462 3.22847 21.7881 1.75661 38.3572 1.9445C54.9264 2.1324 111.192 1.75661 131.684 0.973698C152.176 0.19079 194.478 1.56871 223.254 1.38081C252.03 1.19291 314.29 -0.404219 344.165 0.0968416C374.039 0.597902 406.048 0.7858 423.778 1.66266C441.508 2.53951 452.147 2.25767 456.383 2.25767C462.879 2.25767 465.452 3.82348 465.734 10.6191C466.017 17.4148 465.829 29.7847 465.734 38.6472C465.64 47.5097 466.237 72.3749 465.891 86.7177C465.546 101.061 465.64 129.308 465.327 151.135C465.013 172.963 464.919 204.122 465.138 213.173C465.327 222.223 464.856 234.719 465.044 239.917C465.232 245.116 458.14 245.711 457.073 245.711C456.979 249.343 456.383 256.327 455.693 258.895C455.002 261.463 454.029 263.31 450.264 263.811C446.498 264.312 418.224 266.254 401.874 265.972C385.525 265.69 363.652 264.406 345.891 264.406C328.16 264.406 225.388 264.594 200.252 264.907C175.115 265.189 63.4306 264.72 47.5832 264.5C31.7045 264.312 23.2316 264.218 18.901 264.218C14.5705 264.218 14.6646 261.275 14.6646 259.02C14.6646 256.765 13.8801 249.782 13.378 248.216C5.50138 248.404 0.166614 248.028 0.0724712 236.504C-0.0216717 225.01 0.166614 193.037 0.0724712 176.032C0.0097093 158.996 -0.0530526 121.447 0.0724712 111.019C0.197995 100.591 0.511805 65.4853 0.511805 57.2178C0.511805 48.9503 0.794233 22.1122 0.103852 9.4291ZM5.34447 62.4476C5.43862 77.6986 4.65409 145.342 4.74823 167.67C4.84238 189.999 5.94071 233.059 5.94071 237.694C5.94071 242.328 7.6039 242.015 10.6792 242.015C13.7232 242.015 25.8676 241.42 41.4326 241.514C56.9975 241.608 117.123 243.487 142.95 243.393C168.777 243.299 262.166 243.393 293.202 242.61C324.238 241.827 370.776 242.422 394.311 242.203C417.847 242.015 442.701 240.418 449.103 240.324C455.504 240.23 458.172 238.163 458.674 233.435C459.176 228.706 459.772 202.964 459.113 184.957C458.454 166.95 459.082 155.269 459.113 148.661C459.144 142.085 453.465 141.584 449.04 141.49C444.615 141.396 434.071 142.273 422.429 142.68C410.786 143.087 398.391 142.68 392.68 142.774C386.968 142.868 385.964 143.964 385.682 147.189C385.399 150.446 384.395 163.317 384.489 183.485C384.583 203.653 385.462 224.697 385.682 229.395C385.87 234.124 384.991 237.756 379.562 237.443C374.133 237.13 317.867 237.161 300.514 237.349C283.16 237.537 241.204 238.226 212.647 237.756C184.09 237.286 81.1609 238.038 62.3323 237.85C43.5037 237.662 25.4283 238.257 19.4345 238.445C13.4094 238.633 11.5579 236.378 11.5579 233.247C11.5579 230.115 11.1499 223.319 11.1499 209.352C11.1499 195.385 11.4324 166.762 11.3382 140.331C11.2441 113.869 11.2441 88.1269 11.2441 63.3244C11.2441 38.5219 11.8403 26.9349 11.8403 20.2645C11.8403 13.5942 15.1981 12.2162 19.8111 12.2162C24.4555 12.2162 84.0793 11.5273 104.194 11.1202C124.31 10.7131 182.145 11.9031 203.139 11.7152C224.133 11.5273 284.886 11.9031 305.597 12.1223C326.309 12.3415 368.767 11.5273 374.102 11.4333C379.437 11.3394 384.05 10.8383 384.144 14.8781C384.238 18.9179 383.956 38.8664 383.736 61.8839C383.548 84.9014 384.018 106.322 384.238 114.182C384.426 122.043 385.525 125.205 389.761 125.205C393.998 125.205 407.994 125.393 423.653 125.205C439.312 125.018 449.385 124.423 452.617 123.828C455.849 123.233 457.45 122.731 457.826 118.316C458.203 113.9 458.423 83.8992 458.799 62.8547C459.207 41.8101 458.988 17.7279 458.799 12.8113C458.611 7.8946 457.921 7.11169 452.68 7.01774C447.471 6.92379 435.734 6.92379 414.05 6.42273C392.366 5.92167 364.876 5.13877 345.483 5.32666C326.058 5.51456 249.99 6.51668 221.528 6.20352C193.065 5.89036 165.827 6.20352 139.718 6.20352C113.609 6.20352 57.8134 6.10957 46.9556 6.70458C36.1292 7.29959 16.422 8.67751 11.6834 8.67751C6.9449 8.67751 5.40723 10.2433 5.28171 12.8113C4.84238 23.2083 5.25033 47.1965 5.34447 62.4476ZM445.839 137.481C447.471 137.419 449.918 136.166 449.824 133.504C449.73 130.842 447.69 129.433 445.682 129.308C443.674 129.151 441.697 130.404 441.854 133.504C441.979 136.448 444.207 137.575 445.839 137.481ZM18.0851 71.498C18.2734 85.559 17.4889 117.126 16.8927 141.615C16.2964 166.105 16.4847 205.125 16.8927 216.148C17.3006 227.171 20.7211 229.614 29.0999 229.708C37.4786 229.802 53.7025 230.115 75.3868 230.303C97.071 230.491 178.316 231.399 204.708 231.743C231.13 232.088 288.809 231.493 304.876 231.681C320.943 231.869 364.405 231.493 369.74 231.18C375.075 230.898 377.334 229.019 377.334 224.885C377.334 220.751 377.617 213.173 377.617 201.774C377.617 190.375 378.307 149.757 378.59 129.715C378.872 109.673 378.872 94.8913 379.374 75.4438C379.876 55.9964 380.347 38.5533 379.876 29.5968C379.374 20.6403 374.071 18.6674 366.069 18.3856C358.098 18.1037 322.7 18.2916 303.087 17.9784C283.505 17.6653 219.99 16.6005 197.239 16.6945C174.488 16.7884 126.475 15.8176 108.933 16.1934C91.3911 16.5692 39.3614 16.9763 30.8886 17.1642C22.4157 17.3521 18.8697 20.3898 18.6814 28.8765C18.3676 42.1546 17.8655 57.437 18.0851 71.498Z" fill="#1D1D1B"/>
<path d="M22.4132 28.0944C22.727 22.6767 24.5785 20.923 29.1287 21.017C33.6476 21.1109 92.8948 20.6098 113.167 20.328C133.439 20.0462 172.289 20.0462 192.906 20.8291C213.492 21.612 269.13 20.328 287.927 20.8291C306.725 21.3301 360.166 21.7059 367.164 21.7059C374.162 21.7059 376.328 23.3657 376.61 30.2553C376.892 37.1448 376.798 59.5986 376.61 81.7079C376.422 103.817 375.637 117.001 375.135 135.008C374.633 153.015 374.037 196.263 374.162 205.125C374.256 213.988 374.759 221.065 374.759 223.007C374.759 224.949 373.19 225.951 372.499 223.602C371.809 221.253 370.71 219.093 368.451 217.589C366.192 216.086 358.44 216.399 352.729 217.683C347.018 218.967 277.446 220.721 249.674 221.41C221.902 222.099 170.814 220.909 144.705 220.126C118.596 219.343 44.0033 217.37 40.5514 216.994C37.0995 216.587 35.2166 216.587 33.4593 215.804C31.6706 215.021 30.5095 214.614 28.6266 216.994C26.7438 219.374 25.1747 220.94 23.8881 222.099C22.6015 223.289 20.75 224.573 20.75 219.844C20.75 215.115 20.75 185.052 20.75 161.439C20.75 137.827 21.3462 116.406 21.6287 97.3348C21.9111 78.2631 21.8483 37.2388 22.4132 28.0944ZM29.0032 113.682C29.1915 141.71 28.7208 174.655 29.0032 192.035C29.2856 209.447 33.1455 212.485 44.066 213.362C55.018 214.238 138.366 216.117 158.858 216.117C179.349 216.117 258.178 217.401 279.863 216.9C301.547 216.399 339.298 214.927 347.583 213.863C355.867 212.798 363.618 211.201 364.685 203.059C365.784 194.885 366.066 166.481 366.254 148.975C366.443 131.47 366.443 125.582 366.254 101.782C366.066 77.9813 366.066 55.2457 365.376 46.2892C364.685 37.3328 359.758 33.4182 351.38 32.3221C343.001 31.2261 243.994 30.4432 221.933 30.0674C199.872 29.6603 162.78 29.1905 131.839 29.2845C100.897 29.3784 47.3924 30.5684 40.8024 31.5392C34.2124 32.51 31.7647 34.1072 31.1371 41.7797C30.0074 56.4357 28.8149 85.6538 29.0032 113.682Z" fill="#1D1D1B"/>
<path d="M411.072 37.4249C412.516 37.143 412.516 36.548 411.355 36.3914C410.225 36.2348 409.88 36.2035 409.221 36.1096C408.593 36.0156 408.28 35.4206 408.687 34.0427C409.535 31.1929 412.673 28.8442 414.399 28.5937C416.125 28.3431 416.407 28.5937 416.721 29.126C417.035 29.6584 416.909 30.504 415.968 31.0363C415.026 31.5687 413.803 32.4769 414.775 33.1972C415.748 33.9174 416.313 34.0427 417.223 32.6961C418.164 31.3808 420.079 30.2534 422.84 30.1282C425.602 30.0342 428.363 31.6627 429.054 32.9466C429.744 34.2306 431.282 34.6064 431.125 32.9466C430.968 31.2869 430.089 30.6919 429.681 30.2534C429.273 29.815 429.179 28.9381 430.434 28.4997C431.69 28.0613 432.6 27.5602 434.043 29.126C435.487 30.6919 435.957 32.7587 435.957 33.8861C435.957 35.0135 436.02 35.7025 437.244 35.7025C438.468 35.7025 439.817 35.4519 440.194 36.7985C440.602 38.1138 440.445 38.6775 440.194 39.3665C439.943 40.0554 439.064 39.9928 438.06 40.1181C437.087 40.212 436.428 40.7131 435.738 41.9344C435.047 43.1557 433.259 46.4439 430.183 49.0119C427.077 51.5798 420.393 52.8012 415.215 49.419C410.037 46.0368 409.19 43.876 408.844 42.6234C408.499 41.402 408.405 41.3081 407.401 41.3081C406.397 41.3081 405.236 41.3707 404.89 40.5252C404.545 39.6796 404.294 38.9907 404.89 38.2078C405.487 37.4249 405.926 37.7693 406.867 37.7693C407.809 37.7693 408.248 37.9572 411.072 37.4249ZM422.181 35.6711C423.499 35.6085 424.441 35.7964 425.194 36.3914C425.947 36.9864 425.947 36.548 425.476 35.6711C425.037 34.7943 423.468 34.2306 422.024 34.2306C420.581 34.2306 418.918 35.6085 418.384 36.3601C417.851 37.1117 418.29 37.5188 419.012 36.8925C420.079 35.9843 420.863 35.7338 422.181 35.6711Z" fill="#1D1D1B"/>
<path d="M403.13 38.9922C402.502 29.2842 410.724 20.0146 421.99 19.8267C433.256 19.6388 441.666 29.0336 441.415 38.5538C441.164 48.074 432 57.2496 422.523 56.9365C413.078 56.6546 403.914 51.2369 403.13 38.9922ZM399.866 47.3537C398.486 44.5978 398.14 40.8086 398.14 38.9922C398.14 37.1759 396.697 37.7083 396.665 38.9296C396.603 40.1509 397.073 46.9779 399.27 51.1116C402.628 57.3436 408.339 62.8239 421.111 63.4189C433.883 64.0139 442.984 54.2119 445.839 47.0405C448.695 39.8691 447.817 32.4784 447.032 30.2237C446.247 27.9689 444.522 29.1276 445.118 30.6308C445.714 32.1026 445.996 35.798 445.808 38.3659C445.62 40.9338 445.024 44.9736 442.011 47.5729C443.455 44.1907 444.082 39.0549 443.894 35.6727C443.517 29.0023 435.672 16.8829 421.519 16.9456C407.366 17.0082 400.619 28.0002 400.431 37.1759C400.243 46.3516 404.511 51.9259 406.456 53.5543C403.099 52.8967 401.247 50.1095 399.866 47.3537Z" fill="#1D1D1B"/>
<path d="M421.113 90.7574C420.454 91.7595 419.92 90.319 420.579 89.4734C421.207 88.6279 422.305 88.44 423.372 88.3773C424.439 88.3147 425.631 88.8471 426.29 89.63C426.918 90.4129 426.447 90.9766 425.757 90.4129C425.067 89.8805 424.031 89.5047 423.184 89.5987C422.336 89.7866 421.552 90.0684 421.113 90.7574ZM408.184 91.6342C408.184 100.34 415.119 105.194 423.403 105.257C431.688 105.319 436.615 99.0562 436.615 92.7303C436.583 88.2521 436.27 85.8407 435.297 84.2123C434.324 82.5838 433.226 82.3333 432.347 82.9909C431.468 83.6173 430.778 84.7133 429.303 85.7468C428.205 84.5254 425.694 83.586 424.125 83.586C422.556 83.586 421.018 83.9304 419.7 85.2144C419.073 84.1183 417.347 81.0806 416.908 80.2977C416.468 79.5148 415.652 79.3583 414.554 79.9533C409.721 82.4899 408.184 86.3731 408.184 91.6342Z" fill="#1D1D1B"/>
<path d="M404.543 92.417C403.853 80.141 412.482 74.1283 423.403 74.097C434.323 74.0343 439.815 80.6734 440.192 91.7907C440.6 102.908 432.472 109.328 423.936 109.547C415.432 109.735 405.139 102.971 404.543 92.417ZM400.463 99.4632C399.679 97.4902 398.832 93.607 398.675 91.822C398.518 90.037 397.388 89.6612 397.357 91.822C397.294 95.5173 399.679 103.096 402.974 107.543C406.269 111.958 413.957 115.497 423.215 115.748C432.472 115.998 440.254 112.052 444.899 102.814C449.543 93.5757 447.221 87.2811 446.719 86.0911C446.217 84.9011 445.087 84.5566 445.432 86.2477C445.777 87.9075 445.432 91.6967 444.554 96.081C443.675 100.465 440.129 104.098 438.748 105.257C437.367 106.415 437.367 105.632 438.121 104.693C438.874 103.753 442.639 96.7386 442.765 91.8533C442.859 86.968 440.851 71.2159 422.43 71.623C404.041 72.0301 401.373 85.8406 401.373 92.4483C401.373 97.2084 403.978 102.72 404.543 103.879C405.108 105.006 404.825 105.883 403.853 105.006C401.844 103.19 401.248 101.436 400.463 99.4632Z" fill="#1D1D1B"/>
<path d="M394.94 155.459C395.317 155.678 395.003 156.179 394.533 156.023C394.062 155.866 392.43 155.24 392.461 153.142C392.493 151.043 394.062 150.229 395.882 150.073C397.702 149.916 399.177 150.668 399.114 152.86C399.051 155.052 397.482 155.835 397.012 155.929C396.541 156.023 396.258 155.616 396.635 155.209C397.043 154.801 397.043 154.52 397.043 154.019C397.043 153.517 396.541 153.173 395.788 153.173C395.035 153.204 394.47 153.737 394.47 154.269C394.47 154.801 394.438 155.177 394.94 155.459Z" fill="#1D1D1B"/>
<path d="M403.788 156.306C404.353 156.4 404.384 155.648 403.945 155.617C403.537 155.586 403.161 155.085 403.192 154.364C403.255 153.644 403.663 153.331 404.228 153.331C404.792 153.331 405.483 153.644 405.514 154.208C405.546 154.772 405.451 155.085 405.295 155.304C405.106 155.492 405.169 156.243 405.985 155.742C406.801 155.241 407.46 154.584 407.523 153.08C407.585 151.577 406.393 150.011 404.479 150.074C402.596 150.137 401.246 151.953 401.341 153.206C401.435 154.427 401.56 155.962 403.788 156.306Z" fill="#1D1D1B"/>
<path d="M412.794 155.489C413.233 155.802 413.202 156.303 412.669 156.303C412.135 156.303 410.221 155.458 410.158 153.359C410.095 151.261 411.664 149.977 413.139 149.883C414.583 149.789 416.779 150.729 416.842 152.921C416.905 155.113 415.744 155.771 414.959 156.021C414.175 156.272 413.767 155.896 414.269 155.27C414.771 154.643 414.426 153.61 413.39 153.579C412.323 153.579 411.978 154.925 412.794 155.489Z" fill="#1D1D1B"/>
<path d="M421.894 155.549C422.27 155.768 421.956 156.269 421.486 156.113C421.015 155.956 419.383 155.33 419.415 153.231C419.446 151.133 421.015 150.319 422.835 150.162C424.655 150.006 426.13 150.758 426.067 152.95C426.004 155.142 424.435 155.925 423.965 156.019C423.494 156.113 423.212 155.705 423.588 155.298C423.996 154.891 423.996 154.609 423.996 154.108C423.996 153.607 423.494 153.263 422.741 153.263C421.988 153.294 421.423 153.827 421.423 154.359C421.454 154.891 421.392 155.236 421.894 155.549Z" fill="#1D1D1B"/>
<path d="M430.741 156.365C431.306 156.459 431.338 155.707 430.898 155.676C430.49 155.644 430.114 155.143 430.145 154.423C430.208 153.703 430.616 153.39 431.181 153.39C431.746 153.39 432.436 153.703 432.467 154.266C432.499 154.83 432.405 155.143 432.248 155.363C432.091 155.582 432.122 156.302 432.938 155.801C433.754 155.3 434.413 154.642 434.476 153.139C434.538 151.636 433.346 150.07 431.432 150.133C429.549 150.195 428.2 152.012 428.294 153.264C428.388 154.517 428.513 156.051 430.741 156.365Z" fill="#1D1D1B"/>
<path d="M448.757 156.365C449.322 156.459 449.353 155.707 448.914 155.676C448.506 155.644 448.129 155.143 448.161 154.423C448.224 153.703 448.632 153.39 449.196 153.39C449.761 153.39 450.452 153.703 450.483 154.266C450.514 154.83 450.42 155.143 450.263 155.363C450.075 155.55 450.138 156.302 450.954 155.801C451.77 155.3 452.429 154.642 452.491 153.139C452.554 151.636 451.362 150.07 449.447 150.133C447.565 150.195 446.215 152.012 446.309 153.264C446.403 154.517 446.498 156.051 448.757 156.365Z" fill="#1D1D1B"/>
<path d="M439.755 155.581C440.194 155.894 440.163 156.395 439.629 156.395C439.127 156.395 437.182 155.549 437.119 153.451C437.056 151.353 438.625 150.069 440.1 149.975C441.544 149.881 443.74 150.821 443.803 153.013C443.866 155.205 442.705 155.863 441.92 156.113C441.136 156.364 440.728 155.988 441.23 155.362C441.732 154.735 441.387 153.702 440.351 153.67C439.284 153.639 438.939 155.017 439.755 155.581Z" fill="#1D1D1B"/>
<path d="M394.94 164.791C395.317 165.01 395.003 165.511 394.533 165.355C394.062 165.198 392.43 164.572 392.461 162.474C392.493 160.375 394.062 159.561 395.882 159.405C397.702 159.248 399.177 160 399.114 162.192C399.051 164.384 397.482 165.167 397.012 165.261C396.541 165.355 396.258 164.948 396.635 164.541C397.043 164.133 397.043 163.852 397.043 163.351C397.043 162.849 396.541 162.505 395.788 162.505C395.035 162.536 394.47 163.069 394.47 163.601C394.47 164.133 394.438 164.478 394.94 164.791Z" fill="#1D1D1B"/>
<path d="M403.788 165.603C404.353 165.697 404.384 164.945 403.945 164.914C403.537 164.883 403.161 164.382 403.192 163.661C403.255 162.941 403.663 162.628 404.228 162.628C404.792 162.628 405.483 162.941 405.514 163.505C405.546 164.068 405.451 164.382 405.295 164.601C405.106 164.789 405.169 165.54 405.985 165.039C406.801 164.538 407.46 163.881 407.523 162.377C407.585 160.874 406.393 159.308 404.479 159.371C402.596 159.434 401.246 161.25 401.341 162.503C401.435 163.755 401.56 165.258 403.788 165.603Z" fill="#1D1D1B"/>
<path d="M412.794 164.825C413.233 165.138 413.202 165.639 412.669 165.639C412.166 165.639 410.221 164.794 410.158 162.695C410.095 160.597 411.664 159.313 413.139 159.219C414.614 159.125 416.779 160.065 416.842 162.257C416.905 164.449 415.744 165.107 414.959 165.357C414.175 165.608 413.767 165.232 414.269 164.606C414.771 163.979 414.426 162.946 413.39 162.915C412.323 162.883 411.978 164.23 412.794 164.825Z" fill="#1D1D1B"/>
<path d="M421.894 164.854C422.27 165.073 421.956 165.574 421.486 165.417C421.015 165.261 419.383 164.634 419.415 162.536C419.446 160.438 421.015 159.624 422.835 159.467C424.655 159.311 426.13 160.062 426.067 162.254C426.004 164.446 424.435 165.229 423.965 165.323C423.494 165.417 423.212 165.01 423.588 164.603C423.996 164.196 423.996 163.914 423.996 163.413C423.996 162.912 423.494 162.567 422.741 162.567C421.988 162.599 421.423 163.131 421.423 163.664C421.423 164.196 421.392 164.572 421.894 164.854Z" fill="#1D1D1B"/>
<path d="M430.741 165.699C431.306 165.793 431.338 165.041 430.898 165.01C430.49 164.978 430.114 164.477 430.145 163.757C430.208 163.037 430.616 162.724 431.181 162.724C431.746 162.724 432.436 163.037 432.467 163.6C432.499 164.164 432.405 164.477 432.248 164.696C432.091 164.916 432.122 165.636 432.938 165.135C433.754 164.634 434.413 163.976 434.476 162.473C434.538 160.97 433.346 159.404 431.432 159.467C429.549 159.529 428.2 161.346 428.294 162.598C428.388 163.82 428.513 165.354 430.741 165.699Z" fill="#1D1D1B"/>
<path d="M448.757 165.699C449.322 165.793 449.353 165.041 448.914 165.01C448.506 164.978 448.129 164.477 448.161 163.757C448.224 163.037 448.632 162.724 449.196 162.724C449.761 162.724 450.452 163.037 450.483 163.6C450.514 164.164 450.42 164.477 450.263 164.696C450.075 164.884 450.138 165.636 450.954 165.135C451.77 164.634 452.429 163.976 452.491 162.473C452.554 160.97 451.362 159.404 449.447 159.467C447.565 159.529 446.215 161.346 446.309 162.598C446.403 163.82 446.498 165.354 448.757 165.699Z" fill="#1D1D1B"/>
<path d="M439.755 164.882C440.194 165.195 440.163 165.696 439.629 165.696C439.127 165.696 437.182 164.85 437.119 162.752C437.056 160.654 438.625 159.37 440.1 159.276C441.575 159.182 443.74 160.121 443.803 162.314C443.866 164.506 442.705 165.163 441.92 165.414C441.136 165.664 440.728 165.289 441.23 164.662C441.732 164.036 441.387 163.003 440.351 162.971C439.284 162.971 438.939 164.318 439.755 164.882Z" fill="#1D1D1B"/>
<path d="M394.94 174.09C395.317 174.309 395.003 174.81 394.533 174.654C394.062 174.497 392.43 173.871 392.461 171.772C392.493 169.674 394.062 168.86 395.882 168.704C397.702 168.547 399.177 169.299 399.114 171.491C399.051 173.683 397.482 174.466 397.012 174.56C396.541 174.654 396.258 174.246 396.635 173.839C397.043 173.432 397.043 173.15 397.043 172.649C397.043 172.148 396.541 171.804 395.788 171.804C395.035 171.835 394.47 172.368 394.47 172.9C394.47 173.432 394.438 173.808 394.94 174.09Z" fill="#1D1D1B"/>
<path d="M403.788 174.937C404.353 175.031 404.384 174.279 403.945 174.248C403.537 174.217 403.161 173.716 403.192 172.995C403.255 172.275 403.663 171.962 404.228 171.962C404.792 171.962 405.483 172.275 405.514 172.839C405.546 173.402 405.451 173.716 405.295 173.935C405.106 174.123 405.169 174.874 405.985 174.373C406.801 173.872 407.46 173.215 407.523 171.711C407.585 170.208 406.393 168.642 404.479 168.705C402.596 168.768 401.246 170.584 401.341 171.837C401.435 173.058 401.56 174.592 403.788 174.937Z" fill="#1D1D1B"/>
<path d="M412.794 174.122C413.233 174.435 413.202 174.936 412.669 174.936C412.135 174.936 410.221 174.09 410.158 171.992C410.095 169.894 411.664 168.61 413.139 168.516C414.614 168.422 416.779 169.362 416.842 171.554C416.905 173.746 415.744 174.404 414.959 174.654C414.175 174.905 413.767 174.529 414.269 173.903C414.771 173.276 414.426 172.243 413.39 172.211C412.323 172.211 411.978 173.558 412.794 174.122Z" fill="#1D1D1B"/>
<path d="M421.894 174.188C422.27 174.407 421.956 174.908 421.486 174.751C421.015 174.595 419.383 173.968 419.415 171.87C419.446 169.772 421.015 168.958 422.835 168.801C424.655 168.645 426.13 169.396 426.067 171.588C426.004 173.78 424.435 174.563 423.965 174.657C423.494 174.751 423.212 174.344 423.588 173.937C423.996 173.53 423.996 173.248 423.996 172.747C423.996 172.246 423.494 171.901 422.741 171.901C421.988 171.933 421.423 172.465 421.423 172.998C421.423 173.53 421.392 173.874 421.894 174.188Z" fill="#1D1D1B"/>
<path d="M430.741 175.001C431.306 175.095 431.338 174.344 430.898 174.312C430.49 174.281 430.114 173.78 430.145 173.06C430.208 172.339 430.616 172.026 431.181 172.026C431.746 172.026 432.436 172.339 432.467 172.903C432.499 173.467 432.405 173.78 432.248 173.999C432.091 174.218 432.122 174.939 432.938 174.438C433.754 173.937 434.413 173.279 434.476 171.776C434.538 170.273 433.346 168.707 431.432 168.769C429.549 168.832 428.2 170.648 428.294 171.901C428.388 173.154 428.513 174.657 430.741 175.001Z" fill="#1D1D1B"/>
<path d="M448.757 175.001C449.322 175.095 449.353 174.344 448.914 174.312C448.506 174.281 448.129 173.78 448.161 173.06C448.224 172.339 448.632 172.026 449.196 172.026C449.761 172.026 450.452 172.339 450.483 172.903C450.514 173.467 450.42 173.78 450.263 173.999C450.075 174.187 450.138 174.939 450.954 174.438C451.77 173.937 452.429 173.279 452.491 171.776C452.554 170.273 451.362 168.707 449.447 168.769C447.565 168.832 446.215 170.648 446.309 171.901C446.403 173.154 446.498 174.657 448.757 175.001Z" fill="#1D1D1B"/>
<path d="M439.755 174.215C440.194 174.529 440.163 175.03 439.629 175.03C439.127 175.03 437.182 174.184 437.119 172.086C437.056 169.988 438.625 168.704 440.1 168.61C441.575 168.516 443.74 169.455 443.803 171.648C443.866 173.84 442.705 174.497 441.92 174.748C441.136 174.998 440.728 174.623 441.23 173.996C441.732 173.37 441.387 172.337 440.351 172.305C439.284 172.274 438.939 173.652 439.755 174.215Z" fill="#1D1D1B"/>
<path d="M394.94 183.422C395.317 183.641 395.003 184.142 394.533 183.986C394.062 183.829 392.43 183.203 392.461 181.105C392.493 179.006 394.062 178.192 395.882 178.036C397.702 177.879 399.177 178.631 399.114 180.823C399.051 183.015 397.482 183.798 397.012 183.892C396.541 183.986 396.258 183.579 396.635 183.171C397.043 182.764 397.043 182.482 397.043 181.981C397.043 181.48 396.541 181.136 395.788 181.136C395.035 181.167 394.47 181.7 394.47 182.232C394.47 182.764 394.438 183.109 394.94 183.422Z" fill="#1D1D1B"/>
<path d="M403.788 184.236C404.353 184.33 404.384 183.578 403.945 183.547C403.537 183.515 403.161 183.014 403.192 182.294C403.255 181.574 403.663 181.261 404.228 181.261C404.792 181.261 405.483 181.574 405.514 182.138C405.546 182.701 405.451 183.014 405.295 183.234C405.106 183.421 405.169 184.173 405.985 183.672C406.801 183.171 407.46 182.513 407.523 181.01C407.585 179.507 406.393 177.941 404.479 178.004C402.596 178.066 401.246 179.883 401.341 181.135C401.435 182.388 401.56 183.891 403.788 184.236Z" fill="#1D1D1B"/>
<path d="M412.794 183.456C413.233 183.769 413.202 184.27 412.669 184.27C412.166 184.27 410.221 183.424 410.158 181.326C410.095 179.228 411.664 177.944 413.139 177.85C414.614 177.756 416.779 178.696 416.842 180.888C416.905 183.08 415.744 183.738 414.959 183.988C414.175 184.239 413.767 183.863 414.269 183.237C414.771 182.61 414.426 181.577 413.39 181.545C412.323 181.514 411.978 182.861 412.794 183.456Z" fill="#1D1D1B"/>
<path d="M421.894 183.486C422.27 183.706 421.956 184.207 421.486 184.05C421.015 183.894 419.383 183.267 419.415 181.169C419.446 179.071 421.015 178.257 422.835 178.1C424.655 177.943 426.13 178.695 426.067 180.887C426.004 183.079 424.435 183.862 423.965 183.956C423.494 184.05 423.212 183.643 423.588 183.236C423.965 182.829 423.996 182.547 423.996 182.046C423.996 181.545 423.494 181.2 422.741 181.2C421.988 181.232 421.423 181.764 421.423 182.296C421.423 182.829 421.392 183.205 421.894 183.486Z" fill="#1D1D1B"/>
<path d="M430.741 184.331C431.306 184.425 431.338 183.674 430.898 183.642C430.49 183.611 430.114 183.11 430.145 182.39C430.208 181.67 430.616 181.356 431.181 181.356C431.746 181.356 432.436 181.67 432.467 182.233C432.499 182.797 432.405 183.11 432.248 183.329C432.091 183.549 432.122 184.269 432.938 183.768C433.754 183.267 434.413 182.609 434.476 181.106C434.538 179.603 433.346 178.037 431.432 178.099C429.549 178.162 428.2 179.978 428.294 181.231C428.388 182.452 428.513 183.987 430.741 184.331Z" fill="#1D1D1B"/>
<path d="M448.757 184.331C449.322 184.425 449.353 183.674 448.914 183.642C448.506 183.611 448.129 183.11 448.161 182.39C448.224 181.67 448.632 181.356 449.196 181.356C449.761 181.356 450.452 181.67 450.483 182.233C450.514 182.797 450.42 183.11 450.263 183.329C450.075 183.517 450.138 184.269 450.954 183.768C451.77 183.267 452.429 182.609 452.491 181.106C452.554 179.603 451.362 178.037 449.447 178.099C447.565 178.162 446.215 179.978 446.309 181.231C446.403 182.452 446.498 183.987 448.757 184.331Z" fill="#1D1D1B"/>
<path d="M439.755 183.514C440.194 183.828 440.163 184.329 439.629 184.329C439.127 184.329 437.182 183.483 437.119 181.385C437.056 179.287 438.625 178.003 440.1 177.909C441.575 177.815 443.74 178.754 443.803 180.946C443.866 183.139 442.705 183.796 441.92 184.047C441.136 184.297 440.728 183.921 441.23 183.295C441.732 182.669 441.387 181.635 440.351 181.604C439.284 181.604 438.939 182.951 439.755 183.514Z" fill="#1D1D1B"/>
<path d="M394.94 192.723C395.317 192.942 395.003 193.443 394.533 193.286C394.062 193.13 392.43 192.503 392.461 190.405C392.493 188.307 394.062 187.493 395.882 187.336C397.702 187.18 399.177 187.931 399.114 190.123C399.051 192.316 397.482 193.099 397.012 193.192C396.541 193.286 396.258 192.879 396.635 192.472C397.043 192.065 397.043 191.783 397.043 191.282C397.043 190.781 396.541 190.437 395.788 190.437C395.035 190.468 394.47 191 394.47 191.533C394.501 192.065 394.438 192.441 394.94 192.723Z" fill="#1D1D1B"/>
<path d="M403.788 193.57C404.353 193.664 404.384 192.912 403.945 192.881C403.537 192.849 403.161 192.348 403.192 191.628C403.255 190.908 403.663 190.595 404.228 190.595C404.792 190.595 405.483 190.908 405.514 191.472C405.546 192.035 405.451 192.348 405.295 192.568C405.106 192.755 405.169 193.507 405.985 193.006C406.801 192.505 407.46 191.847 407.523 190.344C407.585 188.841 406.393 187.275 404.479 187.338C402.596 187.4 401.246 189.217 401.341 190.469C401.435 191.691 401.56 193.225 403.788 193.57Z" fill="#1D1D1B"/>
<path d="M412.794 192.755C413.233 193.068 413.202 193.569 412.669 193.569C412.135 193.569 410.221 192.723 410.158 190.625C410.095 188.527 411.664 187.243 413.139 187.149C414.583 187.055 416.779 187.995 416.842 190.187C416.905 192.379 415.744 193.036 414.959 193.287C414.175 193.538 413.767 193.162 414.269 192.535C414.771 191.909 414.426 190.876 413.39 190.844C412.323 190.844 411.978 192.191 412.794 192.755Z" fill="#1D1D1B"/>
<path d="M421.894 192.818C422.27 193.038 421.956 193.539 421.486 193.382C421.015 193.226 419.383 192.599 419.415 190.501C419.446 188.403 421.015 187.589 422.835 187.432C424.655 187.275 426.13 188.027 426.067 190.219C426.004 192.411 424.435 193.194 423.965 193.288C423.494 193.382 423.212 192.975 423.588 192.568C423.965 192.161 423.996 191.879 423.996 191.378C423.996 190.877 423.494 190.532 422.741 190.532C421.988 190.564 421.423 191.096 421.423 191.628C421.454 192.161 421.392 192.505 421.894 192.818Z" fill="#1D1D1B"/>
<path d="M430.741 193.632C431.306 193.726 431.338 192.975 430.898 192.943C430.49 192.912 430.114 192.411 430.145 191.691C430.208 190.97 430.616 190.657 431.181 190.657C431.746 190.657 432.436 190.97 432.467 191.534C432.499 192.098 432.405 192.411 432.248 192.63C432.059 192.818 432.122 193.57 432.938 193.068C433.754 192.567 434.413 191.91 434.476 190.407C434.538 188.903 433.346 187.338 431.432 187.4C429.549 187.463 428.2 189.279 428.294 190.532C428.388 191.785 428.513 193.288 430.741 193.632Z" fill="#1D1D1B"/>
<path d="M448.757 193.632C449.322 193.726 449.353 192.975 448.914 192.943C448.506 192.912 448.129 192.411 448.161 191.691C448.224 190.97 448.632 190.657 449.196 190.657C449.761 190.657 450.452 190.97 450.483 191.534C450.514 192.098 450.42 192.411 450.263 192.63C450.075 192.818 450.138 193.57 450.954 193.068C451.77 192.567 452.429 191.91 452.491 190.407C452.554 188.903 451.362 187.338 449.447 187.4C447.565 187.463 446.215 189.279 446.309 190.532C446.403 191.785 446.498 193.288 448.757 193.632Z" fill="#1D1D1B"/>
<path d="M439.755 192.846C440.194 193.16 440.163 193.661 439.629 193.661C439.127 193.661 437.182 192.815 437.119 190.717C437.056 188.619 438.625 187.335 440.1 187.241C441.575 187.147 443.74 188.086 443.803 190.278C443.866 192.471 442.705 193.128 441.92 193.379C441.136 193.629 440.728 193.253 441.23 192.627C441.732 192.001 441.387 190.967 440.351 190.936C439.284 190.905 438.939 192.251 439.755 192.846Z" fill="#1D1D1B"/>
<path d="M394.94 202.057C395.317 202.276 395.003 202.777 394.533 202.62C394.062 202.464 392.43 201.837 392.461 199.739C392.493 197.641 394.062 196.827 395.882 196.67C397.702 196.514 399.177 197.265 399.114 199.457C399.051 201.65 397.482 202.433 397.012 202.526C396.541 202.62 396.258 202.213 396.635 201.806C397.043 201.399 397.043 201.117 397.043 200.616C397.043 200.115 396.541 199.771 395.788 199.771C395.035 199.802 394.47 200.334 394.47 200.867C394.501 201.368 394.438 201.744 394.94 202.057Z" fill="#1D1D1B"/>
<path d="M403.788 202.869C404.353 202.962 404.384 202.211 403.945 202.18C403.537 202.148 403.161 201.647 403.192 200.927C403.255 200.207 403.663 199.893 404.228 199.893C404.792 199.893 405.483 200.207 405.514 200.77C405.546 201.334 405.451 201.647 405.295 201.866C405.106 202.054 405.169 202.806 405.985 202.305C406.801 201.804 407.46 201.146 407.523 199.643C407.585 198.14 406.393 196.574 404.479 196.637C402.596 196.699 401.246 198.516 401.341 199.768C401.435 201.021 401.56 202.524 403.788 202.869Z" fill="#1D1D1B"/>
<path d="M412.794 202.055C413.233 202.369 413.202 202.87 412.669 202.87C412.166 202.87 410.221 202.024 410.158 199.926C410.095 197.828 411.664 196.544 413.139 196.45C414.614 196.356 416.779 197.295 416.842 199.487C416.905 201.68 415.744 202.337 414.959 202.588C414.175 202.838 413.767 202.462 414.269 201.836C414.771 201.21 414.426 200.176 413.39 200.145C412.323 200.145 411.978 201.492 412.794 202.055Z" fill="#1D1D1B"/>
<path d="M421.894 202.117C422.27 202.336 421.956 202.838 421.486 202.681C421.015 202.524 419.383 201.898 419.415 199.8C419.446 197.702 421.015 196.887 422.835 196.731C424.655 196.574 426.13 197.326 426.067 199.518C426.004 201.71 424.435 202.493 423.965 202.587C423.494 202.681 423.212 202.274 423.588 201.867C423.996 201.46 423.996 201.178 423.996 200.677C423.996 200.176 423.494 199.831 422.741 199.831C421.988 199.862 421.423 200.395 421.423 200.927C421.454 201.46 421.392 201.835 421.894 202.117Z" fill="#1D1D1B"/>
<path d="M430.741 202.964C431.306 203.058 431.338 202.307 430.898 202.275C430.49 202.244 430.114 201.743 430.145 201.023C430.208 200.302 430.616 199.989 431.181 199.989C431.746 199.989 432.436 200.302 432.467 200.866C432.499 201.43 432.405 201.743 432.248 201.962C432.06 202.15 432.122 202.902 432.938 202.401C433.754 201.899 434.413 201.242 434.476 199.739C434.539 198.235 433.346 196.67 431.432 196.732C429.518 196.795 428.2 198.611 428.294 199.864C428.388 201.085 428.513 202.62 430.741 202.964Z" fill="#1D1D1B"/>
<path d="M448.757 202.964C449.322 203.058 449.353 202.307 448.914 202.275C448.506 202.244 448.129 201.743 448.161 201.023C448.224 200.302 448.632 199.989 449.196 199.989C449.761 199.989 450.452 200.302 450.483 200.866C450.514 201.43 450.42 201.743 450.263 201.962C450.075 202.15 450.138 202.902 450.954 202.401C451.77 201.899 452.429 201.242 452.491 199.739C452.554 198.235 451.362 196.67 449.447 196.732C447.565 196.795 446.215 198.611 446.309 199.864C446.403 201.085 446.498 202.62 448.757 202.964Z" fill="#1D1D1B"/>
<path d="M439.755 202.153C440.194 202.466 440.163 202.967 439.629 202.967C439.127 202.967 437.182 202.122 437.119 200.024C437.056 197.925 438.625 196.641 440.1 196.547C441.544 196.453 443.74 197.393 443.803 199.585C443.866 201.777 442.705 202.435 441.92 202.685C441.136 202.936 440.728 202.56 441.23 201.934C441.732 201.307 441.387 200.274 440.351 200.243C439.284 200.243 438.939 201.589 439.755 202.153Z" fill="#1D1D1B"/>
<path d="M394.94 211.356C395.317 211.575 395.003 212.076 394.533 211.919C394.062 211.763 392.43 211.136 392.461 209.038C392.493 206.94 394.062 206.126 395.882 205.969C397.702 205.813 399.177 206.564 399.114 208.756C399.051 210.948 397.482 211.731 397.012 211.825C396.541 211.919 396.258 211.512 396.635 211.105C397.043 210.698 397.043 210.416 397.043 209.915C397.043 209.414 396.541 209.069 395.788 209.069C395.035 209.101 394.47 209.633 394.47 210.166C394.47 210.698 394.438 211.074 394.94 211.356Z" fill="#1D1D1B"/>
<path d="M403.788 212.204C404.353 212.298 404.384 211.547 403.945 211.516C403.537 211.484 403.161 210.983 403.192 210.263C403.255 209.543 403.663 209.229 404.228 209.229C404.792 209.229 405.483 209.543 405.514 210.106C405.546 210.67 405.451 210.983 405.295 211.202C405.106 211.39 405.169 212.142 405.985 211.641C406.801 211.14 407.46 210.482 407.523 208.979C407.585 207.476 406.393 205.91 404.479 205.973C402.596 206.035 401.246 207.852 401.341 209.104C401.435 210.325 401.56 211.86 403.788 212.204Z" fill="#1D1D1B"/>
<path d="M412.794 211.387C413.233 211.701 413.202 212.202 412.669 212.202C412.166 212.202 410.221 211.356 410.158 209.258C410.095 207.16 411.664 205.876 413.139 205.782C414.583 205.688 416.779 206.627 416.842 208.819C416.905 211.012 415.744 211.669 414.959 211.92C414.175 212.17 413.767 211.795 414.269 211.168C414.771 210.542 414.426 209.508 413.39 209.477C412.323 209.477 411.978 210.824 412.794 211.387Z" fill="#1D1D1B"/>
<path d="M421.894 211.453C422.27 211.672 421.956 212.173 421.486 212.017C421.015 211.86 419.383 211.234 419.415 209.136C419.446 207.038 421.015 206.223 422.835 206.067C424.655 205.91 426.13 206.662 426.067 208.854C426.004 211.046 424.435 211.829 423.965 211.923C423.494 212.017 423.212 211.61 423.588 211.203C423.996 210.796 423.996 210.514 423.996 210.013C423.996 209.512 423.494 209.167 422.741 209.167C421.988 209.198 421.423 209.731 421.423 210.263C421.423 210.796 421.392 211.14 421.894 211.453Z" fill="#1D1D1B"/>
<path d="M430.741 212.265C431.306 212.359 431.338 211.607 430.898 211.576C430.49 211.545 430.114 211.044 430.145 210.323C430.208 209.603 430.616 209.29 431.181 209.29C431.746 209.29 432.436 209.603 432.467 210.167C432.499 210.731 432.405 211.044 432.248 211.263C432.091 211.482 432.122 212.202 432.938 211.701C433.754 211.2 434.413 210.543 434.476 209.039C434.538 207.536 433.346 205.97 431.432 206.033C429.549 206.096 428.2 207.912 428.294 209.165C428.388 210.417 428.513 211.921 430.741 212.265Z" fill="#1D1D1B"/>
<path d="M448.757 212.265C449.322 212.359 449.353 211.607 448.914 211.576C448.506 211.545 448.129 211.044 448.161 210.323C448.224 209.603 448.632 209.29 449.196 209.29C449.761 209.29 450.452 209.603 450.483 210.167C450.514 210.731 450.42 211.044 450.263 211.263C450.075 211.451 450.138 212.202 450.954 211.701C451.77 211.2 452.429 210.543 452.491 209.039C452.554 207.536 451.362 205.97 449.447 206.033C447.565 206.096 446.215 207.912 446.309 209.165C446.403 210.417 446.498 211.921 448.757 212.265Z" fill="#1D1D1B"/>
<path d="M439.755 211.481C440.194 211.794 440.163 212.295 439.629 212.295C439.127 212.295 437.182 211.45 437.119 209.352C437.056 207.253 438.625 205.969 440.1 205.876C441.544 205.782 443.74 206.721 443.803 208.913C443.866 211.105 442.705 211.763 441.92 212.013C441.136 212.264 440.728 211.888 441.23 211.262C441.732 210.636 441.387 209.602 440.351 209.571C439.284 209.54 438.939 210.886 439.755 211.481Z" fill="#1D1D1B"/>
<path d="M394.94 220.686C395.317 220.905 395.003 221.406 394.533 221.249C394.062 221.093 392.43 220.466 392.461 218.368C392.493 216.27 394.062 215.456 395.882 215.299C397.702 215.143 399.177 215.894 399.114 218.086C399.051 220.279 397.482 221.061 397.012 221.155C396.541 221.249 396.258 220.842 396.635 220.435C397.043 220.028 397.043 219.746 397.043 219.245C397.043 218.744 396.541 218.4 395.788 218.4C395.035 218.431 394.47 218.963 394.47 219.496C394.47 220.028 394.438 220.372 394.94 220.686Z" fill="#1D1D1B"/>
<path d="M403.788 221.499C404.353 221.593 404.384 220.842 403.945 220.81C403.537 220.779 403.161 220.278 403.192 219.558C403.255 218.838 403.663 218.524 404.228 218.524C404.792 218.524 405.483 218.838 405.514 219.401C405.546 219.965 405.451 220.278 405.295 220.497C405.106 220.685 405.169 221.437 405.985 220.936C406.801 220.435 407.46 219.777 407.523 218.274C407.585 216.771 406.393 215.205 404.479 215.267C402.596 215.33 401.246 217.146 401.341 218.399C401.435 219.652 401.56 221.155 403.788 221.499Z" fill="#1D1D1B"/>
<path d="M412.794 220.69C413.233 221.003 413.202 221.504 412.669 221.504C412.135 221.504 410.221 220.659 410.158 218.561C410.095 216.462 411.664 215.178 413.139 215.085C414.614 214.991 416.779 215.93 416.842 218.122C416.905 220.314 415.744 220.972 414.959 221.223C414.175 221.473 413.767 221.097 414.269 220.471C414.771 219.845 414.426 218.811 413.39 218.78C412.323 218.78 411.978 220.126 412.794 220.69Z" fill="#1D1D1B"/>
<path d="M421.894 220.752C422.27 220.971 421.956 221.472 421.486 221.316C421.015 221.159 419.383 220.533 419.415 218.435C419.446 216.336 421.015 215.522 422.835 215.366C424.655 215.209 426.13 215.961 426.067 218.153C426.004 220.345 424.435 221.128 423.965 221.222C423.494 221.316 423.212 220.909 423.588 220.501C423.996 220.094 423.996 219.813 423.996 219.311C423.996 218.81 423.494 218.466 422.741 218.466C421.988 218.497 421.423 219.03 421.423 219.562C421.423 220.094 421.392 220.47 421.894 220.752Z" fill="#1D1D1B"/>
<path d="M430.741 221.597C431.306 221.691 431.338 220.939 430.898 220.908C430.49 220.877 430.114 220.376 430.145 219.655C430.208 218.935 430.616 218.622 431.181 218.622C431.746 218.622 432.436 218.935 432.467 219.499C432.499 220.063 432.405 220.376 432.248 220.595C432.091 220.814 432.122 221.534 432.938 221.033C433.754 220.532 434.413 219.875 434.476 218.371C434.538 216.868 433.346 215.302 431.432 215.365C429.549 215.428 428.2 217.244 428.294 218.497C428.388 219.718 428.513 221.253 430.741 221.597Z" fill="#1D1D1B"/>
<path d="M448.757 221.597C449.322 221.691 449.353 220.939 448.914 220.908C448.506 220.877 448.129 220.376 448.161 219.655C448.224 218.935 448.632 218.622 449.196 218.622C449.761 218.622 450.452 218.935 450.483 219.499C450.514 220.063 450.42 220.376 450.263 220.595C450.075 220.783 450.138 221.534 450.954 221.033C451.77 220.532 452.429 219.875 452.491 218.371C452.554 216.868 451.362 215.302 449.447 215.365C447.565 215.428 446.215 217.244 446.309 218.497C446.403 219.718 446.498 221.253 448.757 221.597Z" fill="#1D1D1B"/>
<path d="M439.755 220.784C440.194 221.097 440.163 221.598 439.629 221.598C439.127 221.598 437.182 220.753 437.119 218.654C437.056 216.556 438.625 215.272 440.1 215.178C441.575 215.084 443.74 216.024 443.803 218.216C443.866 220.408 442.705 221.066 441.92 221.316C441.136 221.567 440.728 221.191 441.23 220.565C441.732 219.938 441.387 218.905 440.351 218.874C439.284 218.874 438.939 220.22 439.755 220.784Z" fill="#1D1D1B"/>
<path d="M394.94 229.99C395.317 230.21 395.003 230.711 394.533 230.554C394.062 230.397 392.43 229.771 392.461 227.673C392.493 225.575 394.062 224.76 395.882 224.604C397.702 224.447 399.177 225.199 399.114 227.391C399.051 229.583 397.482 230.366 397.012 230.46C396.541 230.554 396.258 230.147 396.635 229.74C397.043 229.333 397.043 229.051 397.043 228.55C397.043 228.049 396.541 227.704 395.788 227.704C395.035 227.736 394.47 228.268 394.47 228.8C394.47 229.333 394.438 229.708 394.94 229.99Z" fill="#1D1D1B"/>
<path d="M403.788 230.835C404.353 230.929 404.384 230.178 403.945 230.146C403.537 230.115 403.161 229.614 403.192 228.894C403.255 228.173 403.663 227.86 404.228 227.86C404.792 227.86 405.483 228.173 405.514 228.737C405.546 229.301 405.451 229.614 405.295 229.833C405.106 230.021 405.169 230.773 405.985 230.272C406.801 229.771 407.46 229.113 407.523 227.61C407.585 226.107 406.393 224.541 404.479 224.603C402.596 224.666 401.246 226.482 401.341 227.735C401.435 228.956 401.56 230.491 403.788 230.835Z" fill="#1D1D1B"/>
<path d="M412.794 230.018C413.233 230.331 413.202 230.832 412.669 230.832C412.166 230.832 410.221 229.987 410.158 227.889C410.095 225.791 411.664 224.507 413.139 224.413C414.614 224.319 416.779 225.258 416.842 227.45C416.905 229.642 415.744 230.3 414.959 230.551C414.175 230.801 413.767 230.425 414.269 229.799C414.771 229.173 414.426 228.139 413.39 228.108C412.323 228.108 411.978 229.455 412.794 230.018Z" fill="#1D1D1B"/>
<path d="M421.894 230.084C422.27 230.303 421.956 230.804 421.486 230.648C421.015 230.491 419.383 229.865 419.415 227.767C419.446 225.668 421.015 224.854 422.835 224.698C424.655 224.541 426.13 225.293 426.067 227.485C426.004 229.677 424.435 230.46 423.965 230.554C423.494 230.648 423.212 230.241 423.588 229.834C423.965 229.426 423.996 229.145 423.996 228.644C423.996 228.142 423.494 227.798 422.741 227.798C421.988 227.829 421.423 228.362 421.423 228.894C421.423 229.426 421.392 229.771 421.894 230.084Z" fill="#1D1D1B"/>
<path d="M430.741 230.9C431.306 230.994 431.338 230.242 430.898 230.211C430.49 230.179 430.114 229.678 430.145 228.958C430.208 228.238 430.616 227.925 431.181 227.925C431.746 227.925 432.436 228.238 432.467 228.802C432.499 229.365 432.405 229.678 432.248 229.898C432.091 230.117 432.122 230.837 432.938 230.336C433.754 229.835 434.413 229.177 434.476 227.674C434.538 226.171 433.346 224.605 431.432 224.668C429.549 224.73 428.2 226.547 428.294 227.799C428.388 229.052 428.513 230.555 430.741 230.9Z" fill="#1D1D1B"/>
<path d="M448.757 230.9C449.322 230.994 449.353 230.242 448.914 230.211C448.506 230.179 448.129 229.678 448.161 228.958C448.224 228.238 448.632 227.925 449.196 227.925C449.761 227.925 450.452 228.238 450.483 228.802C450.514 229.365 450.42 229.678 450.263 229.898C450.075 230.086 450.138 230.837 450.954 230.336C451.77 229.835 452.429 229.177 452.491 227.674C452.554 226.171 451.362 224.605 449.447 224.668C447.565 224.73 446.215 226.547 446.309 227.799C446.403 229.052 446.498 230.555 448.757 230.9Z" fill="#1D1D1B"/>
<path d="M439.755 230.083C440.194 230.396 440.163 230.897 439.629 230.897C439.127 230.897 437.182 230.051 437.119 227.953C437.056 225.855 438.625 224.571 440.1 224.477C441.575 224.383 443.74 225.323 443.803 227.515C443.866 229.707 442.705 230.365 441.92 230.615C441.136 230.866 440.728 230.49 441.23 229.863C441.732 229.237 441.387 228.204 440.351 228.172C439.284 228.172 438.939 229.519 439.755 230.083Z" fill="#1D1D1B"/>
</svg>
