<svg id="Youtube" xmlns="http://www.w3.org/2000/svg" width="60.145" height="60.145" viewBox="0 0 60.145 60.145">
  <circle id="Ellipse_113" data-name="Ellipse 113" cx="30.072" cy="30.072" r="30.072" fill="#b75725"/>
  <path id="Tracé_85372" data-name="Tracé 85372" d="M34.472,82.385c-.977-1.737-2.036-2.057-4.194-2.178C28.122,80.061,22.7,80,18.006,80s-10.128.061-12.281.2c-2.153.124-3.215.441-4.2,2.18C.518,84.12,0,87.108,0,92.369v.018c0,5.238.518,8.249,1.523,9.966.986,1.737,2.045,2.052,4.2,2.2,2.156.126,7.578.2,12.283.2s10.117-.074,12.274-.2c2.158-.146,3.218-.461,4.194-2.2C35.489,100.638,36,97.628,36,92.389v-.018C36,87.108,35.489,84.12,34.472,82.385ZM13.5,99.126v-13.5l11.251,6.75Z" transform="translate(12.52 -61.973)" fill="#fff"/>
</svg>
